# Blender 5.1.2
# www.blender.org
o Plane.001
v 100.000000 0.000000 -100.000000
v -100.000000 0.000000 -100.000000
v 100.000000 0.000000 100.000000
v -100.000000 0.000000 100.000000
vn -0.0000 1.0000 -0.0000
vt 1.000000 0.000000
vt 0.000000 1.000000
vt 0.000000 0.000000
vt 1.000000 1.000000
s 0
f 2/1/1 3/2/1 1/3/1
f 2/1/1 4/4/1 3/2/1
o Cube.010
v 3.955059 0.000000 -24.040462
v 3.955059 8.000000 -24.040462
v 9.611913 0.000000 -18.383608
v 9.611913 8.000000 -18.383608
v -1.701795 0.000000 -18.383608
v -1.701795 8.000000 -18.383608
v 3.955059 0.000000 -12.726753
v 3.955059 8.000000 -12.726753
vn 0.7071 -0.0000 -0.7071
vn 0.7071 -0.0000 0.7071
vn -0.7071 -0.0000 0.7071
vn -0.7071 -0.0000 -0.7071
vn -0.0000 -1.0000 -0.0000
vn -0.0000 1.0000 -0.0000
vt 0.625000 0.000000
vt 0.375000 0.250000
vt 0.375000 0.000000
vt 0.625000 0.250000
vt 0.375000 0.500000
vt 0.625000 0.500000
vt 0.375000 0.750000
vt 0.625000 0.750000
vt 0.375000 1.000000
vt 0.125000 0.750000
vt 0.125000 0.500000
vt 0.875000 0.500000
vt 0.625000 1.000000
vt 0.875000 0.750000
s 0
f 6/5/2 7/6/2 5/7/2
f 8/8/3 11/9/3 7/6/3
f 12/10/4 9/11/4 11/9/4
f 10/12/5 5/13/5 9/11/5
f 11/9/6 5/14/6 7/15/6
f 8/16/7 10/12/7 12/10/7
f 6/5/2 8/8/2 7/6/2
f 8/8/3 12/10/3 11/9/3
f 12/10/4 10/12/4 9/11/4
f 10/12/5 6/17/5 5/13/5
f 11/9/6 9/11/6 5/14/6
f 8/16/7 6/18/7 10/12/7
o Cube.018
v -42.046349 0.000000 -43.046120
v -42.046349 16.000000 -43.046120
v -42.046349 0.000000 -27.046118
v -42.046349 16.000000 -27.046118
v -58.046349 0.000000 -43.046120
v -58.046349 16.000000 -43.046120
v -58.046349 0.000000 -27.046118
v -58.046349 16.000000 -27.046118
vn 1.0000 -0.0000 -0.0000
vn -0.0000 -0.0000 1.0000
vn -1.0000 -0.0000 -0.0000
vn -0.0000 -0.0000 -1.0000
vn -0.0000 -1.0000 -0.0000
vn -0.0000 1.0000 -0.0000
vt 0.625000 0.000000
vt 0.375000 0.250000
vt 0.375000 0.000000
vt 0.625000 0.250000
vt 0.375000 0.500000
vt 0.625000 0.500000
vt 0.375000 0.750000
vt 0.625000 0.750000
vt 0.375000 1.000000
vt 0.125000 0.750000
vt 0.125000 0.500000
vt 0.875000 0.500000
vt 0.625000 1.000000
vt 0.875000 0.750000
s 0
f 14/19/8 15/20/8 13/21/8
f 16/22/9 19/23/9 15/20/9
f 20/24/10 17/25/10 19/23/10
f 18/26/11 13/27/11 17/25/11
f 19/23/12 13/28/12 15/29/12
f 16/30/13 18/26/13 20/24/13
f 14/19/8 16/22/8 15/20/8
f 16/22/9 20/24/9 19/23/9
f 20/24/10 18/26/10 17/25/10
f 18/26/11 14/31/11 13/27/11
f 19/23/12 17/25/12 13/28/12
f 16/30/13 14/32/13 18/26/13
o Cube.025
v 46.449402 -0.000002 22.913876
v 46.449402 15.999998 22.913876
v 46.449402 -0.000002 38.913876
v 46.449402 15.999998 38.913876
v 30.449402 -0.000002 22.913876
v 30.449402 15.999998 22.913876
v 30.449402 -0.000002 38.913876
v 30.449402 15.999998 38.913876
vn 1.0000 -0.0000 -0.0000
vn -0.0000 -0.0000 1.0000
vn -1.0000 -0.0000 -0.0000
vn -0.0000 -0.0000 -1.0000
vn -0.0000 -1.0000 -0.0000
vn -0.0000 1.0000 -0.0000
vt 0.625000 0.000000
vt 0.375000 0.250000
vt 0.375000 0.000000
vt 0.625000 0.250000
vt 0.375000 0.500000
vt 0.625000 0.500000
vt 0.375000 0.750000
vt 0.625000 0.750000
vt 0.375000 1.000000
vt 0.125000 0.750000
vt 0.125000 0.500000
vt 0.875000 0.500000
vt 0.625000 1.000000
vt 0.875000 0.750000
s 0
f 22/33/14 23/34/14 21/35/14
f 24/36/15 27/37/15 23/34/15
f 28/38/16 25/39/16 27/37/16
f 26/40/17 21/41/17 25/39/17
f 27/37/18 21/42/18 23/43/18
f 24/44/19 26/40/19 28/38/19
f 22/33/14 24/36/14 23/34/14
f 24/36/15 28/38/15 27/37/15
f 28/38/16 26/40/16 25/39/16
f 26/40/17 22/45/17 21/41/17
f 27/37/18 25/39/18 21/42/18
f 24/44/19 22/46/19 26/40/19
o Cube.026
v 38.909451 0.000000 -38.119637
v 38.909451 8.000000 -38.119637
v 38.909451 0.000000 -30.119637
v 38.909451 8.000000 -30.119637
v 30.909451 0.000000 -38.119637
v 30.909451 8.000000 -38.119637
v 30.909451 0.000000 -30.119637
v 30.909451 8.000000 -30.119637
vn 1.0000 -0.0000 -0.0000
vn -0.0000 -0.0000 1.0000
vn -1.0000 -0.0000 -0.0000
vn -0.0000 -0.0000 -1.0000
vn -0.0000 -1.0000 -0.0000
vn -0.0000 1.0000 -0.0000
vt 0.625000 0.000000
vt 0.375000 0.250000
vt 0.375000 0.000000
vt 0.625000 0.250000
vt 0.375000 0.500000
vt 0.625000 0.500000
vt 0.375000 0.750000
vt 0.625000 0.750000
vt 0.375000 1.000000
vt 0.125000 0.750000
vt 0.125000 0.500000
vt 0.875000 0.500000
vt 0.625000 1.000000
vt 0.875000 0.750000
s 0
f 30/47/20 31/48/20 29/49/20
f 32/50/21 35/51/21 31/48/21
f 36/52/22 33/53/22 35/51/22
f 34/54/23 29/55/23 33/53/23
f 35/51/24 29/56/24 31/57/24
f 32/58/25 34/54/25 36/52/25
f 30/47/20 32/50/20 31/48/20
f 32/50/21 36/52/21 35/51/21
f 36/52/22 34/54/22 33/53/22
f 34/54/23 30/59/23 29/55/23
f 35/51/24 33/53/24 29/56/24
f 32/58/25 30/60/25 34/54/25
o Cube.027
v -29.466438 0.000000 18.346556
v -29.466438 8.000000 18.346556
v -23.809584 0.000000 24.003410
v -23.809584 8.000000 24.003410
v -35.123291 0.000000 24.003410
v -35.123291 8.000000 24.003410
v -29.466438 0.000000 29.660265
v -29.466438 8.000000 29.660265
vn 0.7071 -0.0000 -0.7071
vn 0.7071 -0.0000 0.7071
vn -0.7071 -0.0000 0.7071
vn -0.7071 -0.0000 -0.7071
vn -0.0000 -1.0000 -0.0000
vn -0.0000 1.0000 -0.0000
vt 0.625000 0.000000
vt 0.375000 0.250000
vt 0.375000 0.000000
vt 0.625000 0.250000
vt 0.375000 0.500000
vt 0.625000 0.500000
vt 0.375000 0.750000
vt 0.625000 0.750000
vt 0.375000 1.000000
vt 0.125000 0.750000
vt 0.125000 0.500000
vt 0.875000 0.500000
vt 0.625000 1.000000
vt 0.875000 0.750000
s 0
f 38/61/26 39/62/26 37/63/26
f 40/64/27 43/65/27 39/62/27
f 44/66/28 41/67/28 43/65/28
f 42/68/29 37/69/29 41/67/29
f 43/65/30 37/70/30 39/71/30
f 40/72/31 42/68/31 44/66/31
f 38/61/26 40/64/26 39/62/26
f 40/64/27 44/66/27 43/65/27
f 44/66/28 42/68/28 41/67/28
f 42/68/29 38/73/29 37/69/29
f 43/65/30 41/67/30 37/70/30
f 40/72/31 38/74/31 42/68/31
o Cube.028
v 15.238991 0.000000 38.611622
v 15.238991 8.000000 38.611622
v 15.238991 0.000000 46.611622
v 15.238991 8.000000 46.611622
v 7.238991 0.000000 38.611622
v 7.238991 8.000000 38.611622
v 7.238991 0.000000 46.611622
v 7.238991 8.000000 46.611622
vn 1.0000 -0.0000 -0.0000
vn -0.0000 -0.0000 1.0000
vn -1.0000 -0.0000 -0.0000
vn -0.0000 -0.0000 -1.0000
vn -0.0000 -1.0000 -0.0000
vn -0.0000 1.0000 -0.0000
vt 0.625000 0.000000
vt 0.375000 0.250000
vt 0.375000 0.000000
vt 0.625000 0.250000
vt 0.375000 0.500000
vt 0.625000 0.500000
vt 0.375000 0.750000
vt 0.625000 0.750000
vt 0.375000 1.000000
vt 0.125000 0.750000
vt 0.125000 0.500000
vt 0.875000 0.500000
vt 0.625000 1.000000
vt 0.875000 0.750000
s 0
f 46/75/32 47/76/32 45/77/32
f 48/78/33 51/79/33 47/76/33
f 52/80/34 49/81/34 51/79/34
f 50/82/35 45/83/35 49/81/35
f 51/79/36 45/84/36 47/85/36
f 48/86/37 50/82/37 52/80/37
f 46/75/32 48/78/32 47/76/32
f 48/78/33 52/80/33 51/79/33
f 52/80/34 50/82/34 49/81/34
f 50/82/35 46/87/35 45/83/35
f 51/79/36 49/81/36 45/84/36
f 48/86/37 46/88/37 50/82/37
o Cube.029
v -10.770607 0.000000 -90.388618
v -10.770607 32.000000 -90.388618
v -10.770607 0.000000 -58.388615
v -10.770607 32.000000 -58.388615
v -42.770607 0.000000 -90.388618
v -42.770607 32.000000 -90.388618
v -42.770607 0.000000 -58.388615
v -42.770607 32.000000 -58.388615
vn 1.0000 -0.0000 -0.0000
vn -0.0000 -0.0000 1.0000
vn -1.0000 -0.0000 -0.0000
vn -0.0000 -0.0000 -1.0000
vn -0.0000 -1.0000 -0.0000
vn -0.0000 1.0000 -0.0000
vt 0.625000 0.000000
vt 0.375000 0.250000
vt 0.375000 0.000000
vt 0.625000 0.250000
vt 0.375000 0.500000
vt 0.625000 0.500000
vt 0.375000 0.750000
vt 0.625000 0.750000
vt 0.375000 1.000000
vt 0.125000 0.750000
vt 0.125000 0.500000
vt 0.875000 0.500000
vt 0.625000 1.000000
vt 0.875000 0.750000
s 0
f 54/89/38 55/90/38 53/91/38
f 56/92/39 59/93/39 55/90/39
f 60/94/40 57/95/40 59/93/40
f 58/96/41 53/97/41 57/95/41
f 59/93/42 53/98/42 55/99/42
f 56/100/43 58/96/43 60/94/43
f 54/89/38 56/92/38 55/90/38
f 56/92/39 60/94/39 59/93/39
f 60/94/40 58/96/40 57/95/40
f 58/96/41 54/101/41 53/97/41
f 59/93/42 57/95/42 53/98/42
f 56/100/43 54/102/43 58/96/43
o Cube.030
v 13.562850 0.000000 -70.986076
v 13.562850 16.000000 -70.986076
v 13.562850 0.000000 -54.986076
v 13.562850 16.000000 -54.986076
v -2.437150 0.000000 -70.986076
v -2.437150 16.000000 -70.986076
v -2.437150 0.000000 -54.986076
v -2.437150 16.000000 -54.986076
vn 1.0000 -0.0000 -0.0000
vn -0.0000 -0.0000 1.0000
vn -1.0000 -0.0000 -0.0000
vn -0.0000 -0.0000 -1.0000
vn -0.0000 -1.0000 -0.0000
vn -0.0000 1.0000 -0.0000
vt 0.625000 0.000000
vt 0.375000 0.250000
vt 0.375000 0.000000
vt 0.625000 0.250000
vt 0.375000 0.500000
vt 0.625000 0.500000
vt 0.375000 0.750000
vt 0.625000 0.750000
vt 0.375000 1.000000
vt 0.125000 0.750000
vt 0.125000 0.500000
vt 0.875000 0.500000
vt 0.625000 1.000000
vt 0.875000 0.750000
s 0
f 62/103/44 63/104/44 61/105/44
f 64/106/45 67/107/45 63/104/45
f 68/108/46 65/109/46 67/107/46
f 66/110/47 61/111/47 65/109/47
f 67/107/48 61/112/48 63/113/48
f 64/114/49 66/110/49 68/108/49
f 62/103/44 64/106/44 63/104/44
f 64/106/45 68/108/45 67/107/45
f 68/108/46 66/110/46 65/109/46
f 66/110/47 62/115/47 61/111/47
f 67/107/48 65/109/48 61/112/48
f 64/114/49 62/116/49 66/110/49
o Cube.031
v -5.398453 0.000000 1.239655
v -5.398453 8.000000 1.239655
v 0.258401 0.000000 6.896509
v 0.258401 8.000000 6.896509
v -11.055307 0.000000 6.896509
v -11.055307 8.000000 6.896509
v -5.398453 0.000000 12.553363
v -5.398453 8.000000 12.553363
vn 0.7071 -0.0000 -0.7071
vn 0.7071 -0.0000 0.7071
vn -0.7071 -0.0000 0.7071
vn -0.7071 -0.0000 -0.7071
vn -0.0000 -1.0000 -0.0000
vn -0.0000 1.0000 -0.0000
vt 0.625000 0.000000
vt 0.375000 0.250000
vt 0.375000 0.000000
vt 0.625000 0.250000
vt 0.375000 0.500000
vt 0.625000 0.500000
vt 0.375000 0.750000
vt 0.625000 0.750000
vt 0.375000 1.000000
vt 0.125000 0.750000
vt 0.125000 0.500000
vt 0.875000 0.500000
vt 0.625000 1.000000
vt 0.875000 0.750000
s 0
f 70/117/50 71/118/50 69/119/50
f 72/120/51 75/121/51 71/118/51
f 76/122/52 73/123/52 75/121/52
f 74/124/53 69/125/53 73/123/53
f 75/121/54 69/126/54 71/127/54
f 72/128/55 74/124/55 76/122/55
f 70/117/50 72/120/50 71/118/50
f 72/120/51 76/122/51 75/121/51
f 76/122/52 74/124/52 73/123/52
f 74/124/53 70/129/53 69/125/53
f 75/121/54 73/123/54 69/126/54
f 72/128/55 70/130/55 74/124/55
o Cube.032
v 41.790569 0.000000 5.469917
v 41.790569 8.000000 5.469917
v 41.790569 0.000000 13.469917
v 41.790569 8.000000 13.469917
v 33.790569 0.000000 5.469917
v 33.790569 8.000000 5.469917
v 33.790569 0.000000 13.469917
v 33.790569 8.000000 13.469917
vn 1.0000 -0.0000 -0.0000
vn -0.0000 -0.0000 1.0000
vn -1.0000 -0.0000 -0.0000
vn -0.0000 -0.0000 -1.0000
vn -0.0000 -1.0000 -0.0000
vn -0.0000 1.0000 -0.0000
vt 0.625000 0.000000
vt 0.375000 0.250000
vt 0.375000 0.000000
vt 0.625000 0.250000
vt 0.375000 0.500000
vt 0.625000 0.500000
vt 0.375000 0.750000
vt 0.625000 0.750000
vt 0.375000 1.000000
vt 0.125000 0.750000
vt 0.125000 0.500000
vt 0.875000 0.500000
vt 0.625000 1.000000
vt 0.875000 0.750000
s 0
f 78/131/56 79/132/56 77/133/56
f 80/134/57 83/135/57 79/132/57
f 84/136/58 81/137/58 83/135/58
f 82/138/59 77/139/59 81/137/59
f 83/135/60 77/140/60 79/141/60
f 80/142/61 82/138/61 84/136/61
f 78/131/56 80/134/56 79/132/56
f 80/134/57 84/136/57 83/135/57
f 84/136/58 82/138/58 81/137/58
f 82/138/59 78/143/59 77/139/59
f 83/135/60 81/137/60 77/140/60
f 80/142/61 78/144/61 82/138/61
o Cube.033
v -45.015388 0.000000 54.467979
v -45.015388 8.000000 54.467979
v -45.015388 0.000000 62.467979
v -45.015388 8.000000 62.467979
v -53.015388 0.000000 54.467979
v -53.015388 8.000000 54.467979
v -53.015388 0.000000 62.467979
v -53.015388 8.000000 62.467979
vn 1.0000 -0.0000 -0.0000
vn -0.0000 -0.0000 1.0000
vn -1.0000 -0.0000 -0.0000
vn -0.0000 -0.0000 -1.0000
vn -0.0000 -1.0000 -0.0000
vn -0.0000 1.0000 -0.0000
vt 0.625000 0.000000
vt 0.375000 0.250000
vt 0.375000 0.000000
vt 0.625000 0.250000
vt 0.375000 0.500000
vt 0.625000 0.500000
vt 0.375000 0.750000
vt 0.625000 0.750000
vt 0.375000 1.000000
vt 0.125000 0.750000
vt 0.125000 0.500000
vt 0.875000 0.500000
vt 0.625000 1.000000
vt 0.875000 0.750000
s 0
f 86/145/62 87/146/62 85/147/62
f 88/148/63 91/149/63 87/146/63
f 92/150/64 89/151/64 91/149/64
f 90/152/65 85/153/65 89/151/65
f 91/149/66 85/154/66 87/155/66
f 88/156/67 90/152/67 92/150/67
f 86/145/62 88/148/62 87/146/62
f 88/148/63 92/150/63 91/149/63
f 92/150/64 90/152/64 89/151/64
f 90/152/65 86/157/65 85/153/65
f 91/149/66 89/151/66 85/154/66
f 88/156/67 86/158/67 90/152/67
o Cube.034
v 57.376591 0.000000 -15.085553
v 57.376591 8.000000 -15.085553
v 57.376591 0.000000 -7.085553
v 57.376591 8.000000 -7.085553
v 49.376591 0.000000 -15.085553
v 49.376591 8.000000 -15.085553
v 49.376591 0.000000 -7.085553
v 49.376591 8.000000 -7.085553
vn 1.0000 -0.0000 -0.0000
vn -0.0000 -0.0000 1.0000
vn -1.0000 -0.0000 -0.0000
vn -0.0000 -0.0000 -1.0000
vn -0.0000 -1.0000 -0.0000
vn -0.0000 1.0000 -0.0000
vt 0.625000 0.000000
vt 0.375000 0.250000
vt 0.375000 0.000000
vt 0.625000 0.250000
vt 0.375000 0.500000
vt 0.625000 0.500000
vt 0.375000 0.750000
vt 0.625000 0.750000
vt 0.375000 1.000000
vt 0.125000 0.750000
vt 0.125000 0.500000
vt 0.875000 0.500000
vt 0.625000 1.000000
vt 0.875000 0.750000
s 0
f 94/159/68 95/160/68 93/161/68
f 96/162/69 99/163/69 95/160/69
f 100/164/70 97/165/70 99/163/70
f 98/166/71 93/167/71 97/165/71
f 99/163/72 93/168/72 95/169/72
f 96/170/73 98/166/73 100/164/73
f 94/159/68 96/162/68 95/160/68
f 96/162/69 100/164/69 99/163/69
f 100/164/70 98/166/70 97/165/70
f 98/166/71 94/171/71 93/167/71
f 99/163/72 97/165/72 93/168/72
f 96/170/73 94/172/73 98/166/73
o Cube.035
v 64.089050 -0.000002 48.558891
v 64.089050 15.999998 48.558891
v 64.089050 -0.000002 64.558891
v 64.089050 15.999998 64.558891
v 48.089054 -0.000002 48.558891
v 48.089054 15.999998 48.558891
v 48.089054 -0.000002 64.558891
v 48.089054 15.999998 64.558891
vn 1.0000 -0.0000 -0.0000
vn -0.0000 -0.0000 1.0000
vn -1.0000 -0.0000 -0.0000
vn -0.0000 -0.0000 -1.0000
vn -0.0000 -1.0000 -0.0000
vn -0.0000 1.0000 -0.0000
vt 0.625000 0.000000
vt 0.375000 0.250000
vt 0.375000 0.000000
vt 0.625000 0.250000
vt 0.375000 0.500000
vt 0.625000 0.500000
vt 0.375000 0.750000
vt 0.625000 0.750000
vt 0.375000 1.000000
vt 0.125000 0.750000
vt 0.125000 0.500000
vt 0.875000 0.500000
vt 0.625000 1.000000
vt 0.875000 0.750000
s 0
f 102/173/74 103/174/74 101/175/74
f 104/176/75 107/177/75 103/174/75
f 108/178/76 105/179/76 107/177/76
f 106/180/77 101/181/77 105/179/77
f 107/177/78 101/182/78 103/183/78
f 104/184/79 106/180/79 108/178/79
f 102/173/74 104/176/74 103/174/74
f 104/176/75 108/178/75 107/177/75
f 108/178/76 106/180/76 105/179/76
f 106/180/77 102/185/77 101/181/77
f 107/177/78 105/179/78 101/182/78
f 104/184/79 102/186/79 106/180/79
o Cube.036
v 34.979393 0.000004 54.511696
v 34.979393 32.000004 54.511696
v 34.979393 0.000004 86.511696
v 34.979393 32.000004 86.511696
v 2.979393 0.000004 54.511696
v 2.979393 32.000004 54.511696
v 2.979393 0.000004 86.511696
v 2.979393 32.000004 86.511696
vn 1.0000 -0.0000 -0.0000
vn -0.0000 -0.0000 1.0000
vn -1.0000 -0.0000 -0.0000
vn -0.0000 -0.0000 -1.0000
vn -0.0000 -1.0000 -0.0000
vn -0.0000 1.0000 -0.0000
vt 0.625000 0.000000
vt 0.375000 0.250000
vt 0.375000 0.000000
vt 0.625000 0.250000
vt 0.375000 0.500000
vt 0.625000 0.500000
vt 0.375000 0.750000
vt 0.625000 0.750000
vt 0.375000 1.000000
vt 0.125000 0.750000
vt 0.125000 0.500000
vt 0.875000 0.500000
vt 0.625000 1.000000
vt 0.875000 0.750000
s 0
f 110/187/80 111/188/80 109/189/80
f 112/190/81 115/191/81 111/188/81
f 116/192/82 113/193/82 115/191/82
f 114/194/83 109/195/83 113/193/83
f 115/191/84 109/196/84 111/197/84
f 112/198/85 114/194/85 116/192/85
f 110/187/80 112/190/80 111/188/80
f 112/190/81 116/192/81 115/191/81
f 116/192/82 114/194/82 113/193/82
f 114/194/83 110/199/83 109/195/83
f 115/191/84 113/193/84 109/196/84
f 112/198/85 110/200/85 114/194/85
o Cube.037
v -44.307472 -0.000002 1.187572
v -44.307472 15.999998 1.187572
v -44.307472 -0.000002 17.187572
v -44.307472 15.999998 17.187572
v -60.307472 -0.000002 1.187572
v -60.307472 15.999998 1.187572
v -60.307472 -0.000002 17.187572
v -60.307472 15.999998 17.187572
vn 1.0000 -0.0000 -0.0000
vn -0.0000 -0.0000 1.0000
vn -1.0000 -0.0000 -0.0000
vn -0.0000 -0.0000 -1.0000
vn -0.0000 -1.0000 -0.0000
vn -0.0000 1.0000 -0.0000
vt 0.625000 0.000000
vt 0.375000 0.250000
vt 0.375000 0.000000
vt 0.625000 0.250000
vt 0.375000 0.500000
vt 0.625000 0.500000
vt 0.375000 0.750000
vt 0.625000 0.750000
vt 0.375000 1.000000
vt 0.125000 0.750000
vt 0.125000 0.500000
vt 0.875000 0.500000
vt 0.625000 1.000000
vt 0.875000 0.750000
s 0
f 118/201/86 119/202/86 117/203/86
f 120/204/87 123/205/87 119/202/87
f 124/206/88 121/207/88 123/205/88
f 122/208/89 117/209/89 121/207/89
f 123/205/90 117/210/90 119/211/90
f 120/212/91 122/208/91 124/206/91
f 118/201/86 120/204/86 119/202/86
f 120/204/87 124/206/87 123/205/87
f 124/206/88 122/208/88 121/207/88
f 122/208/89 118/213/89 117/209/89
f 123/205/90 121/207/90 117/210/90
f 120/212/91 118/214/91 122/208/91
o Cube.038
v -20.338425 0.000000 -11.926071
v -20.338425 7.999999 -11.926071
v -20.338425 0.000000 -3.926071
v -20.338425 7.999999 -3.926071
v -28.338425 0.000000 -11.926071
v -28.338425 7.999999 -11.926071
v -28.338425 0.000000 -3.926071
v -28.338425 7.999999 -3.926071
vn 1.0000 -0.0000 -0.0000
vn -0.0000 -0.0000 1.0000
vn -1.0000 -0.0000 -0.0000
vn -0.0000 -0.0000 -1.0000
vn -0.0000 -1.0000 -0.0000
vn -0.0000 1.0000 -0.0000
vt 0.625000 0.000000
vt 0.375000 0.250000
vt 0.375000 0.000000
vt 0.625000 0.250000
vt 0.375000 0.500000
vt 0.625000 0.500000
vt 0.375000 0.750000
vt 0.625000 0.750000
vt 0.375000 1.000000
vt 0.125000 0.750000
vt 0.125000 0.500000
vt 0.875000 0.500000
vt 0.625000 1.000000
vt 0.875000 0.750000
s 0
f 126/215/92 127/216/92 125/217/92
f 128/218/93 131/219/93 127/216/93
f 132/220/94 129/221/94 131/219/94
f 130/222/95 125/223/95 129/221/95
f 131/219/96 125/224/96 127/225/96
f 128/226/97 130/222/97 132/220/97
f 126/215/92 128/218/92 127/216/92
f 128/218/93 132/220/93 131/219/93
f 132/220/94 130/222/94 129/221/94
f 130/222/95 126/227/95 125/223/95
f 131/219/96 129/221/96 125/224/96
f 128/226/97 126/228/97 130/222/97
o Cube.039
v -72.569710 0.000000 5.986757
v -72.569710 8.000000 5.986757
v -72.569710 0.000000 13.986757
v -72.569710 8.000000 13.986757
v -80.569710 0.000000 5.986757
v -80.569710 8.000000 5.986757
v -80.569710 0.000000 13.986757
v -80.569710 8.000000 13.986757
vn 1.0000 -0.0000 -0.0000
vn -0.0000 -0.0000 1.0000
vn -1.0000 -0.0000 -0.0000
vn -0.0000 -0.0000 -1.0000
vn -0.0000 -1.0000 -0.0000
vn -0.0000 1.0000 -0.0000
vt 0.625000 0.000000
vt 0.375000 0.250000
vt 0.375000 0.000000
vt 0.625000 0.250000
vt 0.375000 0.500000
vt 0.625000 0.500000
vt 0.375000 0.750000
vt 0.625000 0.750000
vt 0.375000 1.000000
vt 0.125000 0.750000
vt 0.125000 0.500000
vt 0.875000 0.500000
vt 0.625000 1.000000
vt 0.875000 0.750000
s 0
f 134/229/98 135/230/98 133/231/98
f 136/232/99 139/233/99 135/230/99
f 140/234/100 137/235/100 139/233/100
f 138/236/101 133/237/101 137/235/101
f 139/233/102 133/238/102 135/239/102
f 136/240/103 138/236/103 140/234/103
f 134/229/98 136/232/98 135/230/98
f 136/232/99 140/234/99 139/233/99
f 140/234/100 138/236/100 137/235/100
f 138/236/101 134/241/101 133/237/101
f 139/233/102 137/235/102 133/238/102
f 136/240/103 134/242/103 138/236/103
o Cube.040
v -61.493484 0.000000 38.101597
v -61.493484 8.000000 38.101597
v -61.493484 0.000000 46.101597
v -61.493484 8.000000 46.101597
v -69.493484 0.000000 38.101597
v -69.493484 8.000000 38.101597
v -69.493484 0.000000 46.101597
v -69.493484 8.000000 46.101597
vn 1.0000 -0.0000 -0.0000
vn -0.0000 -0.0000 1.0000
vn -1.0000 -0.0000 -0.0000
vn -0.0000 -0.0000 -1.0000
vn -0.0000 -1.0000 -0.0000
vn -0.0000 1.0000 -0.0000
vt 0.625000 0.000000
vt 0.375000 0.250000
vt 0.375000 0.000000
vt 0.625000 0.250000
vt 0.375000 0.500000
vt 0.625000 0.500000
vt 0.375000 0.750000
vt 0.625000 0.750000
vt 0.375000 1.000000
vt 0.125000 0.750000
vt 0.125000 0.500000
vt 0.875000 0.500000
vt 0.625000 1.000000
vt 0.875000 0.750000
s 0
f 142/243/104 143/244/104 141/245/104
f 144/246/105 147/247/105 143/244/105
f 148/248/106 145/249/106 147/247/106
f 146/250/107 141/251/107 145/249/107
f 147/247/108 141/252/108 143/253/108
f 144/254/109 146/250/109 148/248/109
f 142/243/104 144/246/104 143/244/104
f 144/246/105 148/248/105 147/247/105
f 148/248/106 146/250/106 145/249/106
f 146/250/107 142/255/107 141/251/107
f 147/247/108 145/249/108 141/252/108
f 144/254/109 142/256/109 146/250/109
o Cube.041
v -14.416708 0.000000 63.834305
v -14.416708 8.000000 63.834305
v -14.416708 0.000000 71.834305
v -14.416708 8.000000 71.834305
v -22.416708 0.000000 63.834305
v -22.416708 8.000000 63.834305
v -22.416708 0.000000 71.834305
v -22.416708 8.000000 71.834305
vn 1.0000 -0.0000 -0.0000
vn -0.0000 -0.0000 1.0000
vn -1.0000 -0.0000 -0.0000
vn -0.0000 -0.0000 -1.0000
vn -0.0000 -1.0000 -0.0000
vn -0.0000 1.0000 -0.0000
vt 0.625000 0.000000
vt 0.375000 0.250000
vt 0.375000 0.000000
vt 0.625000 0.250000
vt 0.375000 0.500000
vt 0.625000 0.500000
vt 0.375000 0.750000
vt 0.625000 0.750000
vt 0.375000 1.000000
vt 0.125000 0.750000
vt 0.125000 0.500000
vt 0.875000 0.500000
vt 0.625000 1.000000
vt 0.875000 0.750000
s 0
f 150/257/110 151/258/110 149/259/110
f 152/260/111 155/261/111 151/258/111
f 156/262/112 153/263/112 155/261/112
f 154/264/113 149/265/113 153/263/113
f 155/261/114 149/266/114 151/267/114
f 152/268/115 154/264/115 156/262/115
f 150/257/110 152/260/110 151/258/110
f 152/260/111 156/262/111 155/261/111
f 156/262/112 154/264/112 153/263/112
f 154/264/113 150/269/113 149/265/113
f 155/261/114 153/263/114 149/266/114
f 152/268/115 150/270/115 154/264/115
o Cube.042
v 84.214462 -0.000000 -69.710922
v 84.214462 8.000000 -69.710922
v 84.214462 -0.000000 -61.710922
v 84.214462 8.000000 -61.710922
v 76.214462 -0.000000 -69.710922
v 76.214462 8.000000 -69.710922
v 76.214462 -0.000000 -61.710922
v 76.214462 8.000000 -61.710922
vn 1.0000 -0.0000 -0.0000
vn -0.0000 -0.0000 1.0000
vn -1.0000 -0.0000 -0.0000
vn -0.0000 -0.0000 -1.0000
vn -0.0000 -1.0000 -0.0000
vn -0.0000 1.0000 -0.0000
vt 0.625000 0.000000
vt 0.375000 0.250000
vt 0.375000 0.000000
vt 0.625000 0.250000
vt 0.375000 0.500000
vt 0.625000 0.500000
vt 0.375000 0.750000
vt 0.625000 0.750000
vt 0.375000 1.000000
vt 0.125000 0.750000
vt 0.125000 0.500000
vt 0.875000 0.500000
vt 0.625000 1.000000
vt 0.875000 0.750000
s 0
f 158/271/116 159/272/116 157/273/116
f 160/274/117 163/275/117 159/272/117
f 164/276/118 161/277/118 163/275/118
f 162/278/119 157/279/119 161/277/119
f 163/275/120 157/280/120 159/281/120
f 160/282/121 162/278/121 164/276/121
f 158/271/116 160/274/116 159/272/116
f 160/274/117 164/276/117 163/275/117
f 164/276/118 162/278/118 161/277/118
f 162/278/119 158/283/119 157/279/119
f 163/275/120 161/277/120 157/280/120
f 160/282/121 158/284/121 162/278/121
o Cube.043
v 85.256210 -0.000012 -50.958157
v 85.256210 7.999988 -50.958157
v 85.256210 -0.000012 -42.958157
v 85.256210 7.999988 -42.958157
v 77.256210 -0.000012 -50.958157
v 77.256210 7.999988 -50.958157
v 77.256210 -0.000012 -42.958157
v 77.256210 7.999988 -42.958157
vn 1.0000 -0.0000 -0.0000
vn -0.0000 -0.0000 1.0000
vn -1.0000 -0.0000 -0.0000
vn -0.0000 -0.0000 -1.0000
vn -0.0000 -1.0000 -0.0000
vn -0.0000 1.0000 -0.0000
vt 0.625000 0.000000
vt 0.375000 0.250000
vt 0.375000 0.000000
vt 0.625000 0.250000
vt 0.375000 0.500000
vt 0.625000 0.500000
vt 0.375000 0.750000
vt 0.625000 0.750000
vt 0.375000 1.000000
vt 0.125000 0.750000
vt 0.125000 0.500000
vt 0.875000 0.500000
vt 0.625000 1.000000
vt 0.875000 0.750000
s 0
f 166/285/122 167/286/122 165/287/122
f 168/288/123 171/289/123 167/286/123
f 172/290/124 169/291/124 171/289/124
f 170/292/125 165/293/125 169/291/125
f 171/289/126 165/294/126 167/295/126
f 168/296/127 170/292/127 172/290/127
f 166/285/122 168/288/122 167/286/122
f 168/288/123 172/290/123 171/289/123
f 172/290/124 170/292/124 169/291/124
f 170/292/125 166/297/125 165/293/125
f 171/289/126 169/291/126 165/294/126
f 168/296/127 166/298/127 170/292/127
o Cube.044
v 87.727158 0.000012 33.045010
v 87.727158 8.000011 33.045010
v 87.727158 0.000012 41.045010
v 87.727158 8.000011 41.045010
v 79.727158 0.000012 33.045010
v 79.727158 8.000011 33.045010
v 79.727158 0.000012 41.045010
v 79.727158 8.000011 41.045010
vn 1.0000 -0.0000 -0.0000
vn -0.0000 -0.0000 1.0000
vn -1.0000 -0.0000 -0.0000
vn -0.0000 -0.0000 -1.0000
vn -0.0000 -1.0000 -0.0000
vn -0.0000 1.0000 -0.0000
vt 0.625000 0.000000
vt 0.375000 0.250000
vt 0.375000 0.000000
vt 0.625000 0.250000
vt 0.375000 0.500000
vt 0.625000 0.500000
vt 0.375000 0.750000
vt 0.625000 0.750000
vt 0.375000 1.000000
vt 0.125000 0.750000
vt 0.125000 0.500000
vt 0.875000 0.500000
vt 0.625000 1.000000
vt 0.875000 0.750000
s 0
f 174/299/128 175/300/128 173/301/128
f 176/302/129 179/303/129 175/300/129
f 180/304/130 177/305/130 179/303/130
f 178/306/131 173/307/131 177/305/131
f 179/303/132 173/308/132 175/309/132
f 176/310/133 178/306/133 180/304/133
f 174/299/128 176/302/128 175/300/128
f 176/302/129 180/304/129 179/303/129
f 180/304/130 178/306/130 177/305/130
f 178/306/131 174/311/131 173/307/131
f 179/303/132 177/305/132 173/308/132
f 176/310/133 174/312/133 178/306/133
o rampa.004
v 3.661575 0.000000 -11.926071
v 3.661575 0.000000 -3.926071
v -20.338425 0.000000 -11.926071
v -20.338425 8.000000 -11.926071
v -20.338425 0.000000 -3.926071
v -20.338425 8.000000 -3.926071
vn -0.0000 -0.0000 1.0000
vn -1.0000 -0.0000 -0.0000
vn -0.0000 -0.0000 -1.0000
vn -0.0000 -1.0000 -0.0000
vn 0.3162 0.9487 -0.0000
vt 0.625000 0.250000
vt 0.625000 0.500000
vt 0.375000 0.500000
vt 0.375000 0.750000
vt 0.625000 0.750000
vt 0.375000 1.000000
vt 0.125000 0.750000
vt 0.125000 0.500000
vt 0.875000 0.500000
vt 0.875000 0.750000
s 0
f 182/313/134 186/314/134 185/315/134
f 186/314/135 183/316/135 185/315/135
f 183/316/136 184/317/136 181/318/136
f 185/315/137 181/319/137 182/320/137
f 182/321/138 184/317/138 186/314/138
f 186/314/135 184/317/135 183/316/135
f 185/315/137 183/316/137 181/319/137
f 182/321/138 181/322/138 184/317/138
o rampa.005
v -22.416708 0.000000 39.834305
v -14.416709 0.000000 39.834305
v -22.416708 0.000000 63.834305
v -22.416708 8.000000 63.834305
v -14.416708 0.000000 63.834305
v -14.416708 8.000000 63.834305
vn 1.0000 -0.0000 -0.0000
vn -0.0000 -0.0000 1.0000
vn -1.0000 -0.0000 -0.0000
vn -0.0000 -1.0000 -0.0000
vn -0.0000 0.9487 -0.3162
vt 0.625000 0.250000
vt 0.625000 0.500000
vt 0.375000 0.500000
vt 0.375000 0.750000
vt 0.625000 0.750000
vt 0.375000 1.000000
vt 0.125000 0.750000
vt 0.125000 0.500000
vt 0.875000 0.500000
vt 0.875000 0.750000
s 0
f 188/323/139 192/324/139 191/325/139
f 192/324/140 189/326/140 191/325/140
f 189/326/141 190/327/141 187/328/141
f 191/325/142 187/329/142 188/330/142
f 188/331/143 190/327/143 192/324/143
f 192/324/140 190/327/140 189/326/140
f 191/325/142 189/326/142 187/329/142
f 188/331/143 187/332/143 190/327/143
o rampa.006
v 9.790570 -0.000000 13.469925
v 9.790567 -0.000000 5.469925
v 33.790569 -0.000000 13.469917
v 33.790569 8.000000 13.469917
v 33.790565 -0.000000 5.469918
v 33.790565 8.000000 5.469918
vn -0.0000 -0.0000 -1.0000
vn 1.0000 -0.0000 -0.0000
vn -0.0000 -0.0000 1.0000
vn -0.0000 -1.0000 -0.0000
vn -0.3162 0.9487 -0.0000
vt 0.625000 0.250000
vt 0.625000 0.500000
vt 0.375000 0.500000
vt 0.375000 0.750000
vt 0.625000 0.750000
vt 0.375000 1.000000
vt 0.125000 0.750000
vt 0.125000 0.500000
vt 0.875000 0.500000
vt 0.875000 0.750000
s 0
f 194/333/144 198/334/144 197/335/144
f 198/334/145 195/336/145 197/335/145
f 195/336/146 196/337/146 193/338/146
f 197/335/147 193/339/147 194/340/147
f 194/341/148 196/337/148 198/334/148
f 198/334/145 196/337/145 195/336/145
f 197/335/147 195/336/147 193/339/147
f 194/341/148 193/342/148 196/337/148
o rampa.007
v 61.562851 0.000000 -70.986069
v 61.562851 0.000000 -54.986073
v 13.562852 0.000000 -70.986069
v 13.562852 16.000000 -70.986069
v 13.562852 0.000000 -54.986073
v 13.562852 16.000000 -54.986073
vn -0.0000 -0.0000 1.0000
vn -1.0000 -0.0000 -0.0000
vn -0.0000 -0.0000 -1.0000
vn -0.0000 -1.0000 -0.0000
vn 0.3162 0.9487 -0.0000
vt 0.625000 0.250000
vt 0.625000 0.500000
vt 0.375000 0.500000
vt 0.375000 0.750000
vt 0.625000 0.750000
vt 0.375000 1.000000
vt 0.125000 0.750000
vt 0.125000 0.500000
vt 0.875000 0.500000
vt 0.875000 0.750000
s 0
f 200/343/149 204/344/149 203/345/149
f 204/344/150 201/346/150 203/345/150
f 201/346/151 202/347/151 199/348/151
f 203/345/152 199/349/152 200/350/152
f 200/351/153 202/347/153 204/344/153
f 204/344/150 202/347/150 201/346/150
f 203/345/152 201/346/152 199/349/152
f 200/351/153 199/352/153 202/347/153
o floor-Plane.002
v 100.000000 0.000000 -100.000000
v -100.000000 0.000000 -100.000000
v 100.000000 0.000000 100.000000
v -100.000000 0.000000 100.000000
vn -0.0000 1.0000 -0.0000
vt 1.000000 0.000000
vt 0.000000 1.000000
vt 0.000000 0.000000
vt 1.000000 1.000000
s 0
f 206/353/154 207/354/154 205/355/154
f 206/353/154 208/356/154 207/354/154
o floor-rampa.001
v 3.661575 0.000000 -11.926071
v 3.661575 0.000000 -3.926071
v -20.338425 8.000000 -11.926071
v -20.338425 8.000000 -3.926071
vn 0.3162 0.9487 -0.0000
vt 0.875000 0.500000
vt 0.625000 0.750000
vt 0.625000 0.500000
vt 0.875000 0.750000
s 0
f 210/357/155 211/358/155 212/359/155
f 210/357/155 209/360/155 211/358/155
o floor-rampa.002
v -22.416708 0.000000 39.834305
v -14.416709 0.000000 39.834305
v -22.416708 8.000000 63.834305
v -14.416708 8.000000 63.834305
vn -0.0000 0.9487 -0.3162
vt 0.875000 0.500000
vt 0.625000 0.750000
vt 0.625000 0.500000
vt 0.875000 0.750000
s 0
f 214/361/156 215/362/156 216/363/156
f 214/361/156 213/364/156 215/362/156
o floor-rampa.003
v 9.790570 -0.000000 13.469925
v 9.790567 -0.000000 5.469925
v 33.790569 8.000000 13.469917
v 33.790565 8.000000 5.469918
vn -0.3162 0.9487 -0.0000
vt 0.875000 0.500000
vt 0.625000 0.750000
vt 0.625000 0.500000
vt 0.875000 0.750000
s 0
f 218/365/157 219/366/157 220/367/157
f 218/365/157 217/368/157 219/366/157
o floor-rampa.008
v 61.562851 0.000000 -70.986069
v 61.562851 0.000000 -54.986073
v 13.562852 16.000000 -70.986069
v 13.562852 16.000000 -54.986073
vn 0.3162 0.9487 -0.0000
vt 0.875000 0.500000
vt 0.625000 0.750000
vt 0.625000 0.500000
vt 0.875000 0.750000
s 0
f 222/369/158 223/370/158 224/371/158
f 222/369/158 221/372/158 223/370/158
o wall-Cube.002
v 3.955059 0.000000 -24.040459
v 3.955059 8.000000 -24.040459
v 9.611913 0.000000 -18.383606
v 9.611913 8.000000 -18.383606
v -1.701795 0.000000 -18.383606
v -1.701795 8.000000 -18.383606
v 3.955059 0.000000 -12.726751
v 3.955059 8.000000 -12.726751
vn 0.7071 -0.0000 -0.7071
vn 0.7071 -0.0000 0.7071
vn -0.7071 -0.0000 0.7071
vn -0.7071 -0.0000 -0.7071
vn -0.0000 -1.0000 -0.0000
vn -0.0000 1.0000 -0.0000
vt 0.625000 0.000000
vt 0.375000 0.250000
vt 0.375000 0.000000
vt 0.625000 0.250000
vt 0.375000 0.500000
vt 0.625000 0.500000
vt 0.375000 0.750000
vt 0.625000 0.750000
vt 0.375000 1.000000
vt 0.125000 0.750000
vt 0.125000 0.500000
vt 0.875000 0.500000
vt 0.625000 1.000000
vt 0.875000 0.750000
s 0
f 226/373/159 227/374/159 225/375/159
f 228/376/160 231/377/160 227/374/160
f 232/378/161 229/379/161 231/377/161
f 230/380/162 225/381/162 229/379/162
f 231/377/163 225/382/163 227/383/163
f 228/384/164 230/380/164 232/378/164
f 226/373/159 228/376/159 227/374/159
f 228/376/160 232/378/160 231/377/160
f 232/378/161 230/380/161 229/379/161
f 230/380/162 226/385/162 225/381/162
f 231/377/163 229/379/163 225/382/163
f 228/384/164 226/386/164 230/380/164
o wall-Cube.003
v -5.398453 0.000000 1.239655
v -5.398453 8.000000 1.239655
v 0.258401 0.000000 6.896509
v 0.258401 8.000000 6.896509
v -11.055307 0.000000 6.896509
v -11.055307 8.000000 6.896509
v -5.398453 0.000000 12.553363
v -5.398453 8.000000 12.553363
vn 0.7071 -0.0000 -0.7071
vn 0.7071 -0.0000 0.7071
vn -0.7071 -0.0000 0.7071
vn -0.7071 -0.0000 -0.7071
vn -0.0000 -1.0000 -0.0000
vn -0.0000 1.0000 -0.0000
vt 0.625000 0.000000
vt 0.375000 0.250000
vt 0.375000 0.000000
vt 0.625000 0.250000
vt 0.375000 0.500000
vt 0.625000 0.500000
vt 0.375000 0.750000
vt 0.625000 0.750000
vt 0.375000 1.000000
vt 0.125000 0.750000
vt 0.125000 0.500000
vt 0.875000 0.500000
vt 0.625000 1.000000
vt 0.875000 0.750000
s 0
f 234/387/165 235/388/165 233/389/165
f 236/390/166 239/391/166 235/388/166
f 240/392/167 237/393/167 239/391/167
f 238/394/168 233/395/168 237/393/168
f 239/391/169 233/396/169 235/397/169
f 236/398/170 238/394/170 240/392/170
f 234/387/165 236/390/165 235/388/165
f 236/390/166 240/392/166 239/391/166
f 240/392/167 238/394/167 237/393/167
f 238/394/168 234/399/168 233/395/168
f 239/391/169 237/393/169 233/396/169
f 236/398/170 234/400/170 238/394/170
o wall-Cube.004
v -29.466438 0.000000 18.346556
v -29.466438 8.000000 18.346556
v -23.809584 0.000000 24.003410
v -23.809584 8.000000 24.003410
v -35.123291 0.000000 24.003410
v -35.123291 8.000000 24.003410
v -29.466438 0.000000 29.660265
v -29.466438 8.000000 29.660265
vn 0.7071 -0.0000 -0.7071
vn 0.7071 -0.0000 0.7071
vn -0.7071 -0.0000 0.7071
vn -0.7071 -0.0000 -0.7071
vn -0.0000 -1.0000 -0.0000
vn -0.0000 1.0000 -0.0000
vt 0.625000 0.000000
vt 0.375000 0.250000
vt 0.375000 0.000000
vt 0.625000 0.250000
vt 0.375000 0.500000
vt 0.625000 0.500000
vt 0.375000 0.750000
vt 0.625000 0.750000
vt 0.375000 1.000000
vt 0.125000 0.750000
vt 0.125000 0.500000
vt 0.875000 0.500000
vt 0.625000 1.000000
vt 0.875000 0.750000
s 0
f 242/401/171 243/402/171 241/403/171
f 244/404/172 247/405/172 243/402/172
f 248/406/173 245/407/173 247/405/173
f 246/408/174 241/409/174 245/407/174
f 247/405/175 241/410/175 243/411/175
f 244/412/176 246/408/176 248/406/176
f 242/401/171 244/404/171 243/402/171
f 244/404/172 248/406/172 247/405/172
f 248/406/173 246/408/173 245/407/173
f 246/408/174 242/413/174 241/409/174
f 247/405/175 245/407/175 241/410/175
f 244/412/176 242/414/176 246/408/176
