# Blender 5.1.2
# www.blender.org
o chao-Plane.001
v 100.000000 0.000000 -100.000000
v -100.000000 0.000000 -100.000000
v 100.000000 0.000000 100.000000
v -100.000000 0.000000 100.000000
vn -0.0000 1.0000 -0.0000
vt 1.000000 0.000000
vt 0.000000 1.000000
vt 0.000000 0.000000
vt 1.000000 1.000000
s 0
f 2/1/1 3/2/1 1/3/1
f 2/1/1 4/4/1 3/2/1
o Cube.001
v 1.000000 0.000000 -1.000000
v 1.000000 2.000000 -1.000000
v 1.000000 0.000000 1.000000
v 1.000000 2.000000 1.000000
v -1.000000 0.000000 -1.000000
v -1.000000 2.000000 -1.000000
v -1.000000 0.000000 1.000000
v -1.000000 2.000000 1.000000
vn 1.0000 -0.0000 -0.0000
vn -0.0000 -0.0000 1.0000
vn -1.0000 -0.0000 -0.0000
vn -0.0000 -0.0000 -1.0000
vn -0.0000 -1.0000 -0.0000
vn -0.0000 1.0000 -0.0000
vt 0.625000 0.000000
vt 0.375000 0.250000
vt 0.375000 0.000000
vt 0.625000 0.250000
vt 0.375000 0.500000
vt 0.625000 0.500000
vt 0.375000 0.750000
vt 0.625000 0.750000
vt 0.375000 1.000000
vt 0.125000 0.750000
vt 0.125000 0.500000
vt 0.875000 0.500000
vt 0.625000 1.000000
vt 0.875000 0.750000
s 0
f 6/5/2 7/6/2 5/7/2
f 8/8/3 11/9/3 7/6/3
f 12/10/4 9/11/4 11/9/4
f 10/12/5 5/13/5 9/11/5
f 11/9/6 5/14/6 7/15/6
f 8/16/7 10/12/7 12/10/7
f 6/5/2 8/8/2 7/6/2
f 8/8/3 12/10/3 11/9/3
f 12/10/4 10/12/4 9/11/4
f 10/12/5 6/17/5 5/13/5
f 11/9/6 9/11/6 5/14/6
f 8/16/7 6/18/7 10/12/7
o Cube.002
v -1.000000 0.200000 -1.000000
v -1.000000 2.200000 -1.000000
v -1.000000 0.200000 1.000000
v -1.000000 2.200000 1.000000
v -3.000000 0.200000 -1.000000
v -3.000000 2.200000 -1.000000
v -3.000000 0.200000 1.000000
v -3.000000 2.200000 1.000000
vn 1.0000 -0.0000 -0.0000
vn -0.0000 -0.0000 1.0000
vn -1.0000 -0.0000 -0.0000
vn -0.0000 -0.0000 -1.0000
vn -0.0000 -1.0000 -0.0000
vn -0.0000 1.0000 -0.0000
vt 0.625000 0.000000
vt 0.375000 0.250000
vt 0.375000 0.000000
vt 0.625000 0.250000
vt 0.375000 0.500000
vt 0.625000 0.500000
vt 0.375000 0.750000
vt 0.625000 0.750000
vt 0.375000 1.000000
vt 0.125000 0.750000
vt 0.125000 0.500000
vt 0.875000 0.500000
vt 0.625000 1.000000
vt 0.875000 0.750000
s 0
f 14/19/8 15/20/8 13/21/8
f 16/22/9 19/23/9 15/20/9
f 20/24/10 17/25/10 19/23/10
f 18/26/11 13/27/11 17/25/11
f 19/23/12 13/28/12 15/29/12
f 16/30/13 18/26/13 20/24/13
f 14/19/8 16/22/8 15/20/8
f 16/22/9 20/24/9 19/23/9
f 20/24/10 18/26/10 17/25/10
f 18/26/11 14/31/11 13/27/11
f 19/23/12 17/25/12 13/28/12
f 16/30/13 14/32/13 18/26/13
o Cube.003
v -3.000000 0.400000 -1.000000
v -3.000000 2.400000 -1.000000
v -3.000000 0.400000 1.000000
v -3.000000 2.400000 1.000000
v -5.000000 0.400000 -1.000000
v -5.000000 2.400000 -1.000000
v -5.000000 0.400000 1.000000
v -5.000000 2.400000 1.000000
vn 1.0000 -0.0000 -0.0000
vn -0.0000 -0.0000 1.0000
vn -1.0000 -0.0000 -0.0000
vn -0.0000 -0.0000 -1.0000
vn -0.0000 -1.0000 -0.0000
vn -0.0000 1.0000 -0.0000
vt 0.625000 0.000000
vt 0.375000 0.250000
vt 0.375000 0.000000
vt 0.625000 0.250000
vt 0.375000 0.500000
vt 0.625000 0.500000
vt 0.375000 0.750000
vt 0.625000 0.750000
vt 0.375000 1.000000
vt 0.125000 0.750000
vt 0.125000 0.500000
vt 0.875000 0.500000
vt 0.625000 1.000000
vt 0.875000 0.750000
s 0
f 22/33/14 23/34/14 21/35/14
f 24/36/15 27/37/15 23/34/15
f 28/38/16 25/39/16 27/37/16
f 26/40/17 21/41/17 25/39/17
f 27/37/18 21/42/18 23/43/18
f 24/44/19 26/40/19 28/38/19
f 22/33/14 24/36/14 23/34/14
f 24/36/15 28/38/15 27/37/15
f 28/38/16 26/40/16 25/39/16
f 26/40/17 22/45/17 21/41/17
f 27/37/18 25/39/18 21/42/18
f 24/44/19 22/46/19 26/40/19
o Cube.004
v -5.000000 0.600000 -1.000000
v -5.000000 2.600000 -1.000000
v -5.000000 0.600000 1.000000
v -5.000000 2.600000 1.000000
v -7.000000 0.600000 -1.000000
v -7.000000 2.600000 -1.000000
v -7.000000 0.600000 1.000000
v -7.000000 2.600000 1.000000
vn 1.0000 -0.0000 -0.0000
vn -0.0000 -0.0000 1.0000
vn -1.0000 -0.0000 -0.0000
vn -0.0000 -0.0000 -1.0000
vn -0.0000 -1.0000 -0.0000
vn -0.0000 1.0000 -0.0000
vt 0.625000 0.000000
vt 0.375000 0.250000
vt 0.375000 0.000000
vt 0.625000 0.250000
vt 0.375000 0.500000
vt 0.625000 0.500000
vt 0.375000 0.750000
vt 0.625000 0.750000
vt 0.375000 1.000000
vt 0.125000 0.750000
vt 0.125000 0.500000
vt 0.875000 0.500000
vt 0.625000 1.000000
vt 0.875000 0.750000
s 0
f 30/47/20 31/48/20 29/49/20
f 32/50/21 35/51/21 31/48/21
f 36/52/22 33/53/22 35/51/22
f 34/54/23 29/55/23 33/53/23
f 35/51/24 29/56/24 31/57/24
f 32/58/25 34/54/25 36/52/25
f 30/47/20 32/50/20 31/48/20
f 32/50/21 36/52/21 35/51/21
f 36/52/22 34/54/22 33/53/22
f 34/54/23 30/59/23 29/55/23
f 35/51/24 33/53/24 29/56/24
f 32/58/25 30/60/25 34/54/25
o Cube.005
v -7.000000 0.800000 -1.000000
v -7.000000 2.800000 -1.000000
v -7.000000 0.800000 1.000000
v -7.000000 2.800000 1.000000
v -9.000000 0.800000 -1.000000
v -9.000000 2.800000 -1.000000
v -9.000000 0.800000 1.000000
v -9.000000 2.800000 1.000000
vn 1.0000 -0.0000 -0.0000
vn -0.0000 -0.0000 1.0000
vn -1.0000 -0.0000 -0.0000
vn -0.0000 -0.0000 -1.0000
vn -0.0000 -1.0000 -0.0000
vn -0.0000 1.0000 -0.0000
vt 0.625000 0.000000
vt 0.375000 0.250000
vt 0.375000 0.000000
vt 0.625000 0.250000
vt 0.375000 0.500000
vt 0.625000 0.500000
vt 0.375000 0.750000
vt 0.625000 0.750000
vt 0.375000 1.000000
vt 0.125000 0.750000
vt 0.125000 0.500000
vt 0.875000 0.500000
vt 0.625000 1.000000
vt 0.875000 0.750000
s 0
f 38/61/26 39/62/26 37/63/26
f 40/64/27 43/65/27 39/62/27
f 44/66/28 41/67/28 43/65/28
f 42/68/29 37/69/29 41/67/29
f 43/65/30 37/70/30 39/71/30
f 40/72/31 42/68/31 44/66/31
f 38/61/26 40/64/26 39/62/26
f 40/64/27 44/66/27 43/65/27
f 44/66/28 42/68/28 41/67/28
f 42/68/29 38/73/29 37/69/29
f 43/65/30 41/67/30 37/70/30
f 40/72/31 38/74/31 42/68/31
o Cube.006
v -9.000000 1.000000 -1.000000
v -9.000000 3.000000 -1.000000
v -9.000000 1.000000 1.000000
v -9.000000 3.000000 1.000000
v -11.000000 1.000000 -1.000000
v -11.000000 3.000000 -1.000000
v -11.000000 1.000000 1.000000
v -11.000000 3.000000 1.000000
vn 1.0000 -0.0000 -0.0000
vn -0.0000 -0.0000 1.0000
vn -1.0000 -0.0000 -0.0000
vn -0.0000 -0.0000 -1.0000
vn -0.0000 -1.0000 -0.0000
vn -0.0000 1.0000 -0.0000
vt 0.625000 0.000000
vt 0.375000 0.250000
vt 0.375000 0.000000
vt 0.625000 0.250000
vt 0.375000 0.500000
vt 0.625000 0.500000
vt 0.375000 0.750000
vt 0.625000 0.750000
vt 0.375000 1.000000
vt 0.125000 0.750000
vt 0.125000 0.500000
vt 0.875000 0.500000
vt 0.625000 1.000000
vt 0.875000 0.750000
s 0
f 46/75/32 47/76/32 45/77/32
f 48/78/33 51/79/33 47/76/33
f 52/80/34 49/81/34 51/79/34
f 50/82/35 45/83/35 49/81/35
f 51/79/36 45/84/36 47/85/36
f 48/86/37 50/82/37 52/80/37
f 46/75/32 48/78/32 47/76/32
f 48/78/33 52/80/33 51/79/33
f 52/80/34 50/82/34 49/81/34
f 50/82/35 46/87/35 45/83/35
f 51/79/36 49/81/36 45/84/36
f 48/86/37 46/88/37 50/82/37
o Cube.007
v -11.000000 1.200000 -1.000000
v -11.000000 3.200000 -1.000000
v -11.000000 1.200000 1.000000
v -11.000000 3.200000 1.000000
v -13.000000 1.200000 -1.000000
v -13.000000 3.200000 -1.000000
v -13.000000 1.200000 1.000000
v -13.000000 3.200000 1.000000
vn 1.0000 -0.0000 -0.0000
vn -0.0000 -0.0000 1.0000
vn -1.0000 -0.0000 -0.0000
vn -0.0000 -0.0000 -1.0000
vn -0.0000 -1.0000 -0.0000
vn -0.0000 1.0000 -0.0000
vt 0.625000 0.000000
vt 0.375000 0.250000
vt 0.375000 0.000000
vt 0.625000 0.250000
vt 0.375000 0.500000
vt 0.625000 0.500000
vt 0.375000 0.750000
vt 0.625000 0.750000
vt 0.375000 1.000000
vt 0.125000 0.750000
vt 0.125000 0.500000
vt 0.875000 0.500000
vt 0.625000 1.000000
vt 0.875000 0.750000
s 0
f 54/89/38 55/90/38 53/91/38
f 56/92/39 59/93/39 55/90/39
f 60/94/40 57/95/40 59/93/40
f 58/96/41 53/97/41 57/95/41
f 59/93/42 53/98/42 55/99/42
f 56/100/43 58/96/43 60/94/43
f 54/89/38 56/92/38 55/90/38
f 56/92/39 60/94/39 59/93/39
f 60/94/40 58/96/40 57/95/40
f 58/96/41 54/101/41 53/97/41
f 59/93/42 57/95/42 53/98/42
f 56/100/43 54/102/43 58/96/43
o Cube.008
v -13.000000 1.400000 -1.000000
v -13.000000 3.400000 -1.000000
v -13.000000 1.400000 1.000000
v -13.000000 3.400000 1.000000
v -15.000000 1.400000 -1.000000
v -15.000000 3.400000 -1.000000
v -15.000000 1.400000 1.000000
v -15.000000 3.400000 1.000000
vn 1.0000 -0.0000 -0.0000
vn -0.0000 -0.0000 1.0000
vn -1.0000 -0.0000 -0.0000
vn -0.0000 -0.0000 -1.0000
vn -0.0000 -1.0000 -0.0000
vn -0.0000 1.0000 -0.0000
vt 0.625000 0.000000
vt 0.375000 0.250000
vt 0.375000 0.000000
vt 0.625000 0.250000
vt 0.375000 0.500000
vt 0.625000 0.500000
vt 0.375000 0.750000
vt 0.625000 0.750000
vt 0.375000 1.000000
vt 0.125000 0.750000
vt 0.125000 0.500000
vt 0.875000 0.500000
vt 0.625000 1.000000
vt 0.875000 0.750000
s 0
f 62/103/44 63/104/44 61/105/44
f 64/106/45 67/107/45 63/104/45
f 68/108/46 65/109/46 67/107/46
f 66/110/47 61/111/47 65/109/47
f 67/107/48 61/112/48 63/113/48
f 64/114/49 66/110/49 68/108/49
f 62/103/44 64/106/44 63/104/44
f 64/106/45 68/108/45 67/107/45
f 68/108/46 66/110/46 65/109/46
f 66/110/47 62/115/47 61/111/47
f 67/107/48 65/109/48 61/112/48
f 64/114/49 62/116/49 66/110/49
o Cube.009
v -15.000000 1.600000 -1.000000
v -15.000000 3.600000 -1.000000
v -15.000000 1.600000 1.000000
v -15.000000 3.600000 1.000000
v -17.000000 1.600000 -1.000000
v -17.000000 3.600000 -1.000000
v -17.000000 1.600000 1.000000
v -17.000000 3.600000 1.000000
vn 1.0000 -0.0000 -0.0000
vn -0.0000 -0.0000 1.0000
vn -1.0000 -0.0000 -0.0000
vn -0.0000 -0.0000 -1.0000
vn -0.0000 -1.0000 -0.0000
vn -0.0000 1.0000 -0.0000
vt 0.625000 0.000000
vt 0.375000 0.250000
vt 0.375000 0.000000
vt 0.625000 0.250000
vt 0.375000 0.500000
vt 0.625000 0.500000
vt 0.375000 0.750000
vt 0.625000 0.750000
vt 0.375000 1.000000
vt 0.125000 0.750000
vt 0.125000 0.500000
vt 0.875000 0.500000
vt 0.625000 1.000000
vt 0.875000 0.750000
s 0
f 70/117/50 71/118/50 69/119/50
f 72/120/51 75/121/51 71/118/51
f 76/122/52 73/123/52 75/121/52
f 74/124/53 69/125/53 73/123/53
f 75/121/54 69/126/54 71/127/54
f 72/128/55 74/124/55 76/122/55
f 70/117/50 72/120/50 71/118/50
f 72/120/51 76/122/51 75/121/51
f 76/122/52 74/124/52 73/123/52
f 74/124/53 70/129/53 69/125/53
f 75/121/54 73/123/54 69/126/54
f 72/128/55 70/130/55 74/124/55
o Cube.010
v -17.000000 1.800000 -1.000000
v -17.000000 3.800000 -1.000000
v -17.000000 1.800000 1.000000
v -17.000000 3.800000 1.000000
v -19.000000 1.800000 -1.000000
v -19.000000 3.800000 -1.000000
v -19.000000 1.800000 1.000000
v -19.000000 3.800000 1.000000
vn 1.0000 -0.0000 -0.0000
vn -0.0000 -0.0000 1.0000
vn -1.0000 -0.0000 -0.0000
vn -0.0000 -0.0000 -1.0000
vn -0.0000 -1.0000 -0.0000
vn -0.0000 1.0000 -0.0000
vt 0.625000 0.000000
vt 0.375000 0.250000
vt 0.375000 0.000000
vt 0.625000 0.250000
vt 0.375000 0.500000
vt 0.625000 0.500000
vt 0.375000 0.750000
vt 0.625000 0.750000
vt 0.375000 1.000000
vt 0.125000 0.750000
vt 0.125000 0.500000
vt 0.875000 0.500000
vt 0.625000 1.000000
vt 0.875000 0.750000
s 0
f 78/131/56 79/132/56 77/133/56
f 80/134/57 83/135/57 79/132/57
f 84/136/58 81/137/58 83/135/58
f 82/138/59 77/139/59 81/137/59
f 83/135/60 77/140/60 79/141/60
f 80/142/61 82/138/61 84/136/61
f 78/131/56 80/134/56 79/132/56
f 80/134/57 84/136/57 83/135/57
f 84/136/58 82/138/58 81/137/58
f 82/138/59 78/143/59 77/139/59
f 83/135/60 81/137/60 77/140/60
f 80/142/61 78/144/61 82/138/61
o Cube.022
v -19.000000 2.000000 -1.000000
v -19.000000 4.000000 -1.000000
v -19.000000 2.000000 1.000000
v -19.000000 4.000000 1.000000
v -21.000000 2.000000 -1.000000
v -21.000000 4.000000 -1.000000
v -21.000000 2.000000 1.000000
v -21.000000 4.000000 1.000000
vn 1.0000 -0.0000 -0.0000
vn -0.0000 -0.0000 1.0000
vn -1.0000 -0.0000 -0.0000
vn -0.0000 -0.0000 -1.0000
vn -0.0000 -1.0000 -0.0000
vn -0.0000 1.0000 -0.0000
vt 0.625000 0.000000
vt 0.375000 0.250000
vt 0.375000 0.000000
vt 0.625000 0.250000
vt 0.375000 0.500000
vt 0.625000 0.500000
vt 0.375000 0.750000
vt 0.625000 0.750000
vt 0.375000 1.000000
vt 0.125000 0.750000
vt 0.125000 0.500000
vt 0.875000 0.500000
vt 0.625000 1.000000
vt 0.875000 0.750000
s 0
f 86/145/62 87/146/62 85/147/62
f 88/148/63 91/149/63 87/146/63
f 92/150/64 89/151/64 91/149/64
f 90/152/65 85/153/65 89/151/65
f 91/149/66 85/154/66 87/155/66
f 88/156/67 90/152/67 92/150/67
f 86/145/62 88/148/62 87/146/62
f 88/148/63 92/150/63 91/149/63
f 92/150/64 90/152/64 89/151/64
f 90/152/65 86/157/65 85/153/65
f 91/149/66 89/151/66 85/154/66
f 88/156/67 86/158/67 90/152/67
o floor_Plane.002
v 100.000000 0.000000 -100.000000
v -100.000000 0.000000 -100.000000
v 100.000000 0.000000 100.000000
v -100.000000 0.000000 100.000000
vn -0.0000 1.0000 -0.0000
vt 1.000000 0.000000
vt 0.000000 1.000000
vt 0.000000 0.000000
vt 1.000000 1.000000
s 0
f 94/159/68 95/160/68 93/161/68
f 94/159/68 96/162/68 95/160/68
o wall_Cube.011
v 1.000000 0.000000 -1.000000
v 1.000000 2.000000 -1.000000
v 1.000000 0.000000 1.000000
v 1.000000 2.000000 1.000000
v -1.000000 0.000000 -1.000000
v -1.000000 2.000000 -1.000000
v -1.000000 0.000000 1.000000
v -1.000000 2.000000 1.000000
vn 1.0000 -0.0000 -0.0000
vn -0.0000 -0.0000 1.0000
vn -1.0000 -0.0000 -0.0000
vn -0.0000 -0.0000 -1.0000
vn -0.0000 -1.0000 -0.0000
vn -0.0000 1.0000 -0.0000
vt 0.625000 0.000000
vt 0.375000 0.250000
vt 0.375000 0.000000
vt 0.625000 0.250000
vt 0.375000 0.500000
vt 0.625000 0.500000
vt 0.375000 0.750000
vt 0.625000 0.750000
vt 0.375000 1.000000
vt 0.125000 0.750000
vt 0.125000 0.500000
vt 0.875000 0.500000
vt 0.625000 1.000000
vt 0.875000 0.750000
s 0
f 98/163/69 99/164/69 97/165/69
f 100/166/70 103/167/70 99/164/70
f 104/168/71 101/169/71 103/167/71
f 102/170/72 97/171/72 101/169/72
f 103/167/73 97/172/73 99/173/73
f 100/174/74 102/170/74 104/168/74
f 98/163/69 100/166/69 99/164/69
f 100/166/70 104/168/70 103/167/70
f 104/168/71 102/170/71 101/169/71
f 102/170/72 98/175/72 97/171/72
f 103/167/73 101/169/73 97/172/73
f 100/174/74 98/176/74 102/170/74
o wall_Cube.012
v -1.000000 0.200000 -1.000000
v -1.000000 2.200000 -1.000000
v -1.000000 0.200000 1.000000
v -1.000000 2.200000 1.000000
v -3.000000 0.200000 -1.000000
v -3.000000 2.200000 -1.000000
v -3.000000 0.200000 1.000000
v -3.000000 2.200000 1.000000
vn 1.0000 -0.0000 -0.0000
vn -0.0000 -0.0000 1.0000
vn -1.0000 -0.0000 -0.0000
vn -0.0000 -0.0000 -1.0000
vn -0.0000 -1.0000 -0.0000
vn -0.0000 1.0000 -0.0000
vt 0.625000 0.000000
vt 0.375000 0.250000
vt 0.375000 0.000000
vt 0.625000 0.250000
vt 0.375000 0.500000
vt 0.625000 0.500000
vt 0.375000 0.750000
vt 0.625000 0.750000
vt 0.375000 1.000000
vt 0.125000 0.750000
vt 0.125000 0.500000
vt 0.875000 0.500000
vt 0.625000 1.000000
vt 0.875000 0.750000
s 0
f 106/177/75 107/178/75 105/179/75
f 108/180/76 111/181/76 107/178/76
f 112/182/77 109/183/77 111/181/77
f 110/184/78 105/185/78 109/183/78
f 111/181/79 105/186/79 107/187/79
f 108/188/80 110/184/80 112/182/80
f 106/177/75 108/180/75 107/178/75
f 108/180/76 112/182/76 111/181/76
f 112/182/77 110/184/77 109/183/77
f 110/184/78 106/189/78 105/185/78
f 111/181/79 109/183/79 105/186/79
f 108/188/80 106/190/80 110/184/80
o wall_Cube.013
v -3.000000 0.400000 -1.000000
v -3.000000 2.400000 -1.000000
v -3.000000 0.400000 1.000000
v -3.000000 2.400000 1.000000
v -5.000000 0.400000 -1.000000
v -5.000000 2.400000 -1.000000
v -5.000000 0.400000 1.000000
v -5.000000 2.400000 1.000000
vn 1.0000 -0.0000 -0.0000
vn -0.0000 -0.0000 1.0000
vn -1.0000 -0.0000 -0.0000
vn -0.0000 -0.0000 -1.0000
vn -0.0000 -1.0000 -0.0000
vn -0.0000 1.0000 -0.0000
vt 0.625000 0.000000
vt 0.375000 0.250000
vt 0.375000 0.000000
vt 0.625000 0.250000
vt 0.375000 0.500000
vt 0.625000 0.500000
vt 0.375000 0.750000
vt 0.625000 0.750000
vt 0.375000 1.000000
vt 0.125000 0.750000
vt 0.125000 0.500000
vt 0.875000 0.500000
vt 0.625000 1.000000
vt 0.875000 0.750000
s 0
f 114/191/81 115/192/81 113/193/81
f 116/194/82 119/195/82 115/192/82
f 120/196/83 117/197/83 119/195/83
f 118/198/84 113/199/84 117/197/84
f 119/195/85 113/200/85 115/201/85
f 116/202/86 118/198/86 120/196/86
f 114/191/81 116/194/81 115/192/81
f 116/194/82 120/196/82 119/195/82
f 120/196/83 118/198/83 117/197/83
f 118/198/84 114/203/84 113/199/84
f 119/195/85 117/197/85 113/200/85
f 116/202/86 114/204/86 118/198/86
o wall_Cube.014
v -5.000000 0.600000 -1.000000
v -5.000000 2.600000 -1.000000
v -5.000000 0.600000 1.000000
v -5.000000 2.600000 1.000000
v -7.000000 0.600000 -1.000000
v -7.000000 2.600000 -1.000000
v -7.000000 0.600000 1.000000
v -7.000000 2.600000 1.000000
vn 1.0000 -0.0000 -0.0000
vn -0.0000 -0.0000 1.0000
vn -1.0000 -0.0000 -0.0000
vn -0.0000 -0.0000 -1.0000
vn -0.0000 -1.0000 -0.0000
vn -0.0000 1.0000 -0.0000
vt 0.625000 0.000000
vt 0.375000 0.250000
vt 0.375000 0.000000
vt 0.625000 0.250000
vt 0.375000 0.500000
vt 0.625000 0.500000
vt 0.375000 0.750000
vt 0.625000 0.750000
vt 0.375000 1.000000
vt 0.125000 0.750000
vt 0.125000 0.500000
vt 0.875000 0.500000
vt 0.625000 1.000000
vt 0.875000 0.750000
s 0
f 122/205/87 123/206/87 121/207/87
f 124/208/88 127/209/88 123/206/88
f 128/210/89 125/211/89 127/209/89
f 126/212/90 121/213/90 125/211/90
f 127/209/91 121/214/91 123/215/91
f 124/216/92 126/212/92 128/210/92
f 122/205/87 124/208/87 123/206/87
f 124/208/88 128/210/88 127/209/88
f 128/210/89 126/212/89 125/211/89
f 126/212/90 122/217/90 121/213/90
f 127/209/91 125/211/91 121/214/91
f 124/216/92 122/218/92 126/212/92
o wall_Cube.015
v -7.000000 0.800000 -1.000000
v -7.000000 2.800000 -1.000000
v -7.000000 0.800000 1.000000
v -7.000000 2.800000 1.000000
v -9.000000 0.800000 -1.000000
v -9.000000 2.800000 -1.000000
v -9.000000 0.800000 1.000000
v -9.000000 2.800000 1.000000
vn 1.0000 -0.0000 -0.0000
vn -0.0000 -0.0000 1.0000
vn -1.0000 -0.0000 -0.0000
vn -0.0000 -0.0000 -1.0000
vn -0.0000 -1.0000 -0.0000
vn -0.0000 1.0000 -0.0000
vt 0.625000 0.000000
vt 0.375000 0.250000
vt 0.375000 0.000000
vt 0.625000 0.250000
vt 0.375000 0.500000
vt 0.625000 0.500000
vt 0.375000 0.750000
vt 0.625000 0.750000
vt 0.375000 1.000000
vt 0.125000 0.750000
vt 0.125000 0.500000
vt 0.875000 0.500000
vt 0.625000 1.000000
vt 0.875000 0.750000
s 0
f 130/219/93 131/220/93 129/221/93
f 132/222/94 135/223/94 131/220/94
f 136/224/95 133/225/95 135/223/95
f 134/226/96 129/227/96 133/225/96
f 135/223/97 129/228/97 131/229/97
f 132/230/98 134/226/98 136/224/98
f 130/219/93 132/222/93 131/220/93
f 132/222/94 136/224/94 135/223/94
f 136/224/95 134/226/95 133/225/95
f 134/226/96 130/231/96 129/227/96
f 135/223/97 133/225/97 129/228/97
f 132/230/98 130/232/98 134/226/98
o wall_Cube.016
v -9.000000 1.000000 -1.000000
v -9.000000 3.000000 -1.000000
v -9.000000 1.000000 1.000000
v -9.000000 3.000000 1.000000
v -11.000000 1.000000 -1.000000
v -11.000000 3.000000 -1.000000
v -11.000000 1.000000 1.000000
v -11.000000 3.000000 1.000000
vn 1.0000 -0.0000 -0.0000
vn -0.0000 -0.0000 1.0000
vn -1.0000 -0.0000 -0.0000
vn -0.0000 -0.0000 -1.0000
vn -0.0000 -1.0000 -0.0000
vn -0.0000 1.0000 -0.0000
vt 0.625000 0.000000
vt 0.375000 0.250000
vt 0.375000 0.000000
vt 0.625000 0.250000
vt 0.375000 0.500000
vt 0.625000 0.500000
vt 0.375000 0.750000
vt 0.625000 0.750000
vt 0.375000 1.000000
vt 0.125000 0.750000
vt 0.125000 0.500000
vt 0.875000 0.500000
vt 0.625000 1.000000
vt 0.875000 0.750000
s 0
f 138/233/99 139/234/99 137/235/99
f 140/236/100 143/237/100 139/234/100
f 144/238/101 141/239/101 143/237/101
f 142/240/102 137/241/102 141/239/102
f 143/237/103 137/242/103 139/243/103
f 140/244/104 142/240/104 144/238/104
f 138/233/99 140/236/99 139/234/99
f 140/236/100 144/238/100 143/237/100
f 144/238/101 142/240/101 141/239/101
f 142/240/102 138/245/102 137/241/102
f 143/237/103 141/239/103 137/242/103
f 140/244/104 138/246/104 142/240/104
o wall_Cube.017
v -11.000000 1.200000 -1.000000
v -11.000000 3.200000 -1.000000
v -11.000000 1.200000 1.000000
v -11.000000 3.200000 1.000000
v -13.000000 1.200000 -1.000000
v -13.000000 3.200000 -1.000000
v -13.000000 1.200000 1.000000
v -13.000000 3.200000 1.000000
vn 1.0000 -0.0000 -0.0000
vn -0.0000 -0.0000 1.0000
vn -1.0000 -0.0000 -0.0000
vn -0.0000 -0.0000 -1.0000
vn -0.0000 -1.0000 -0.0000
vn -0.0000 1.0000 -0.0000
vt 0.625000 0.000000
vt 0.375000 0.250000
vt 0.375000 0.000000
vt 0.625000 0.250000
vt 0.375000 0.500000
vt 0.625000 0.500000
vt 0.375000 0.750000
vt 0.625000 0.750000
vt 0.375000 1.000000
vt 0.125000 0.750000
vt 0.125000 0.500000
vt 0.875000 0.500000
vt 0.625000 1.000000
vt 0.875000 0.750000
s 0
f 146/247/105 147/248/105 145/249/105
f 148/250/106 151/251/106 147/248/106
f 152/252/107 149/253/107 151/251/107
f 150/254/108 145/255/108 149/253/108
f 151/251/109 145/256/109 147/257/109
f 148/258/110 150/254/110 152/252/110
f 146/247/105 148/250/105 147/248/105
f 148/250/106 152/252/106 151/251/106
f 152/252/107 150/254/107 149/253/107
f 150/254/108 146/259/108 145/255/108
f 151/251/109 149/253/109 145/256/109
f 148/258/110 146/260/110 150/254/110
o wall_Cube.018
v -13.000000 1.400000 -1.000000
v -13.000000 3.400000 -1.000000
v -13.000000 1.400000 1.000000
v -13.000000 3.400000 1.000000
v -15.000000 1.400000 -1.000000
v -15.000000 3.400000 -1.000000
v -15.000000 1.400000 1.000000
v -15.000000 3.400000 1.000000
vn 1.0000 -0.0000 -0.0000
vn -0.0000 -0.0000 1.0000
vn -1.0000 -0.0000 -0.0000
vn -0.0000 -0.0000 -1.0000
vn -0.0000 -1.0000 -0.0000
vn -0.0000 1.0000 -0.0000
vt 0.625000 0.000000
vt 0.375000 0.250000
vt 0.375000 0.000000
vt 0.625000 0.250000
vt 0.375000 0.500000
vt 0.625000 0.500000
vt 0.375000 0.750000
vt 0.625000 0.750000
vt 0.375000 1.000000
vt 0.125000 0.750000
vt 0.125000 0.500000
vt 0.875000 0.500000
vt 0.625000 1.000000
vt 0.875000 0.750000
s 0
f 154/261/111 155/262/111 153/263/111
f 156/264/112 159/265/112 155/262/112
f 160/266/113 157/267/113 159/265/113
f 158/268/114 153/269/114 157/267/114
f 159/265/115 153/270/115 155/271/115
f 156/272/116 158/268/116 160/266/116
f 154/261/111 156/264/111 155/262/111
f 156/264/112 160/266/112 159/265/112
f 160/266/113 158/268/113 157/267/113
f 158/268/114 154/273/114 153/269/114
f 159/265/115 157/267/115 153/270/115
f 156/272/116 154/274/116 158/268/116
o wall_Cube.019
v -15.000000 1.600000 -1.000000
v -15.000000 3.600000 -1.000000
v -15.000000 1.600000 1.000000
v -15.000000 3.600000 1.000000
v -17.000000 1.600000 -1.000000
v -17.000000 3.600000 -1.000000
v -17.000000 1.600000 1.000000
v -17.000000 3.600000 1.000000
vn 1.0000 -0.0000 -0.0000
vn -0.0000 -0.0000 1.0000
vn -1.0000 -0.0000 -0.0000
vn -0.0000 -0.0000 -1.0000
vn -0.0000 -1.0000 -0.0000
vn -0.0000 1.0000 -0.0000
vt 0.625000 0.000000
vt 0.375000 0.250000
vt 0.375000 0.000000
vt 0.625000 0.250000
vt 0.375000 0.500000
vt 0.625000 0.500000
vt 0.375000 0.750000
vt 0.625000 0.750000
vt 0.375000 1.000000
vt 0.125000 0.750000
vt 0.125000 0.500000
vt 0.875000 0.500000
vt 0.625000 1.000000
vt 0.875000 0.750000
s 0
f 162/275/117 163/276/117 161/277/117
f 164/278/118 167/279/118 163/276/118
f 168/280/119 165/281/119 167/279/119
f 166/282/120 161/283/120 165/281/120
f 167/279/121 161/284/121 163/285/121
f 164/286/122 166/282/122 168/280/122
f 162/275/117 164/278/117 163/276/117
f 164/278/118 168/280/118 167/279/118
f 168/280/119 166/282/119 165/281/119
f 166/282/120 162/287/120 161/283/120
f 167/279/121 165/281/121 161/284/121
f 164/286/122 162/288/122 166/282/122
o wall_Cube.020
v -17.000000 1.800000 -1.000000
v -17.000000 3.800000 -1.000000
v -17.000000 1.800000 1.000000
v -17.000000 3.800000 1.000000
v -19.000000 1.800000 -1.000000
v -19.000000 3.800000 -1.000000
v -19.000000 1.800000 1.000000
v -19.000000 3.800000 1.000000
vn 1.0000 -0.0000 -0.0000
vn -0.0000 -0.0000 1.0000
vn -1.0000 -0.0000 -0.0000
vn -0.0000 -0.0000 -1.0000
vn -0.0000 -1.0000 -0.0000
vn -0.0000 1.0000 -0.0000
vt 0.625000 0.000000
vt 0.375000 0.250000
vt 0.375000 0.000000
vt 0.625000 0.250000
vt 0.375000 0.500000
vt 0.625000 0.500000
vt 0.375000 0.750000
vt 0.625000 0.750000
vt 0.375000 1.000000
vt 0.125000 0.750000
vt 0.125000 0.500000
vt 0.875000 0.500000
vt 0.625000 1.000000
vt 0.875000 0.750000
s 0
f 170/289/123 171/290/123 169/291/123
f 172/292/124 175/293/124 171/290/124
f 176/294/125 173/295/125 175/293/125
f 174/296/126 169/297/126 173/295/126
f 175/293/127 169/298/127 171/299/127
f 172/300/128 174/296/128 176/294/128
f 170/289/123 172/292/123 171/290/123
f 172/292/124 176/294/124 175/293/124
f 176/294/125 174/296/125 173/295/125
f 174/296/126 170/301/126 169/297/126
f 175/293/127 173/295/127 169/298/127
f 172/300/128 170/302/128 174/296/128
o wall_Cube.021
v -19.000000 2.000000 -1.000000
v -19.000000 4.000000 -1.000000
v -19.000000 2.000000 1.000000
v -19.000000 4.000000 1.000000
v -21.000000 2.000000 -1.000000
v -21.000000 4.000000 -1.000000
v -21.000000 2.000000 1.000000
v -21.000000 4.000000 1.000000
vn 1.0000 -0.0000 -0.0000
vn -0.0000 -0.0000 1.0000
vn -1.0000 -0.0000 -0.0000
vn -0.0000 -0.0000 -1.0000
vn -0.0000 -1.0000 -0.0000
vn -0.0000 1.0000 -0.0000
vt 0.625000 0.000000
vt 0.375000 0.250000
vt 0.375000 0.000000
vt 0.625000 0.250000
vt 0.375000 0.500000
vt 0.625000 0.500000
vt 0.375000 0.750000
vt 0.625000 0.750000
vt 0.375000 1.000000
vt 0.125000 0.750000
vt 0.125000 0.500000
vt 0.875000 0.500000
vt 0.625000 1.000000
vt 0.875000 0.750000
s 0
f 178/303/129 179/304/129 177/305/129
f 180/306/130 183/307/130 179/304/130
f 184/308/131 181/309/131 183/307/131
f 182/310/132 177/311/132 181/309/132
f 183/307/133 177/312/133 179/313/133
f 180/314/134 182/310/134 184/308/134
f 178/303/129 180/306/129 179/304/129
f 180/306/130 184/308/130 183/307/130
f 184/308/131 182/310/131 181/309/131
f 182/310/132 178/315/132 177/311/132
f 183/307/133 181/309/133 177/312/133
f 180/314/134 178/316/134 182/310/134
