# Blender 5.1.2
# www.blender.org
o chao-Plane.001
v 100.000000 0.000000 -100.000000
v -100.000000 0.000000 -100.000000
v 100.000000 0.000000 100.000000
v -100.000000 0.000000 100.000000
vn -0.0000 1.0000 -0.0000
vt 1.000000 0.000000
vt 0.000000 1.000000
vt 0.000000 0.000000
vt 1.000000 1.000000
s 0
f 2/1/1 3/2/1 1/3/1
f 2/1/1 4/4/1 3/2/1
o parede-door.002
v 2.949998 0.000000 0.500000
v 2.949998 2.000000 0.500000
v 2.950000 0.000000 -0.500000
v 2.950000 2.000000 -0.500000
v 2.849998 0.000000 0.500000
v 2.849998 2.000000 0.500000
v 2.850000 0.000000 -0.500000
v 2.850000 2.000000 -0.500000
v 2.950000 0.000000 -3.000000
v 2.949998 0.000000 3.000000
v 2.949998 2.800000 3.000000
v 2.950000 2.800000 -3.000000
v 2.850000 2.800000 -2.899999
v 2.850000 0.000000 -2.899999
v 2.849998 0.000000 2.900000
v 2.849998 2.800000 2.900000
vn -0.7071 -0.0000 -0.7071
vn -0.0000 -1.0000 -0.0000
vn -0.7071 -0.0000 0.7071
vn -0.0000 -0.0000 -1.0000
vn -0.0000 1.0000 -0.0000
vn -0.0000 -0.0000 1.0000
vn 1.0000 -0.0000 -0.0000
vn -1.0000 -0.0000 -0.0000
vt 0.375000 0.500000
vt 0.625000 0.250000
vt 0.375000 0.250000
vt 0.584148 0.690835
vt 0.589007 0.214007
vt 0.589007 0.035993
vt 0.375000 1.000000
vt 0.625000 0.750000
vt 0.375000 0.750000
vt 0.410993 0.035993
vt 0.415852 0.690835
vt 0.875000 0.500000
vt 0.625000 0.500000
vt 0.410993 0.214007
vt 0.584148 0.559165
vt 0.415852 0.559165
vt 0.375000 0.000000
vt 0.625000 1.000000
vt 0.875000 0.750000
vt 0.625000 0.000000
s 0
f 18/5/2 16/6/2 13/7/2
f 10/8/3 8/9/3 6/10/3
f 14/11/4 20/12/4 19/13/4
f 10/8/5 5/14/5 9/15/5
f 20/12/6 16/16/6 17/17/6
f 7/18/7 12/19/7 11/20/7
f 6/10/8 14/21/8 5/14/8
f 16/6/8 6/10/8 8/9/8
f 13/7/8 8/9/8 7/18/8
f 12/19/9 18/5/9 11/20/9
f 5/14/3 19/13/3 9/15/3
f 10/8/9 17/17/9 12/19/9
f 19/13/9 10/8/9 9/15/9
f 7/18/3 18/5/3 13/7/3
f 18/5/2 17/17/2 16/6/2
f 10/8/3 12/19/3 8/9/3
f 14/11/4 15/22/4 20/12/4
f 10/8/5 6/10/5 5/14/5
f 20/12/6 15/23/6 16/16/6
f 7/18/7 8/9/7 12/19/7
f 6/10/8 15/24/8 14/21/8
f 16/6/8 15/24/8 6/10/8
f 13/7/8 16/6/8 8/9/8
f 12/19/9 17/17/9 18/5/9
f 5/14/3 14/11/3 19/13/3
f 10/8/9 20/12/9 17/17/9
f 19/13/9 20/12/9 10/8/9
f 7/18/3 11/20/3 18/5/3
o parede-normal.001
v -3.050000 0.000000 -3.000000
v -3.050000 2.800000 -3.000000
v -3.050000 0.000000 3.000000
v -3.050000 2.800000 3.000000
v -2.950000 0.000000 -2.900000
v -2.950000 2.800000 -2.900000
v -2.950000 0.000000 2.900000
v -2.950000 2.800000 2.900000
vn -1.0000 -0.0000 -0.0000
vn 0.7071 -0.0000 0.7071
vn 1.0000 -0.0000 -0.0000
vn 0.7071 -0.0000 -0.7071
vn -0.0000 -1.0000 -0.0000
vn -0.0000 1.0000 -0.0000
vt 0.375000 0.250000
vt 0.625000 0.000000
vt 0.375000 0.000000
vt 0.375000 0.500000
vt 0.625000 0.250000
vt 0.375000 0.750000
vt 0.625000 0.500000
vt 0.375000 1.000000
vt 0.625000 0.750000
vt 0.125000 0.750000
vt 0.125000 0.500000
vt 0.875000 0.500000
vt 0.625000 1.000000
vt 0.875000 0.750000
s 0
f 23/25/10 22/26/10 21/27/10
f 27/28/11 24/29/11 23/25/11
f 25/30/12 28/31/12 27/28/12
f 21/32/13 26/33/13 25/30/13
f 21/34/14 27/28/14 23/35/14
f 26/33/15 24/36/15 28/31/15
f 23/25/10 24/29/10 22/26/10
f 27/28/11 28/31/11 24/29/11
f 25/30/12 26/33/12 28/31/12
f 21/32/13 22/37/13 26/33/13
f 21/34/14 25/30/14 27/28/14
f 26/33/15 22/38/15 24/36/15
o parede-window.002
v -0.566749 0.983208 3.000000
v -0.566749 2.347071 3.000000
v 0.466745 0.983208 3.000000
v 0.466745 2.347071 3.000000
v -0.566749 0.983208 2.900000
v -0.566749 2.347071 2.900000
v 0.466745 0.983208 2.900000
v 0.466745 2.347071 2.900000
v 2.949998 0.000000 3.000000
v -3.050002 0.000000 3.000000
v -3.050002 2.800000 3.000000
v 2.949998 2.800000 3.000000
v 2.849998 2.800000 2.900000
v 2.849998 0.000000 2.900000
v -2.950001 0.000000 2.900000
v -2.950001 2.800000 2.900000
vn 1.0000 -0.0000 -0.0000
vn 0.7071 -0.0000 -0.7071
vn -0.0000 1.0000 -0.0000
vn -0.7071 -0.0000 -0.7071
vn -0.0000 -1.0000 -0.0000
vn -0.0000 -0.0000 1.0000
vn -0.0000 -0.0000 -1.0000
vn -1.0000 -0.0000 -0.0000
vt 0.428868 0.671985
vt 0.571132 0.075415
vt 0.428868 0.075415
vt 0.375000 0.500000
vt 0.625000 0.250000
vt 0.375000 0.250000
vt 0.428868 0.578015
vt 0.428868 0.174585
vt 0.375000 1.000000
vt 0.625000 0.750000
vt 0.375000 0.750000
vt 0.125000 0.750000
vt 0.125000 0.500000
vt 0.875000 0.500000
vt 0.625000 0.500000
vt 0.375000 0.000000
vt 0.625000 0.000000
vt 0.571132 0.174585
vt 0.571132 0.578015
vt 0.571132 0.671985
vt 0.625000 1.000000
vt 0.875000 0.750000
s 0
f 33/39/16 30/40/16 29/41/16
f 42/42/17 40/43/17 37/44/17
f 35/45/18 29/41/18 31/46/18
f 38/47/19 44/48/19 43/49/19
f 38/50/20 42/42/20 37/51/20
f 44/48/18 40/52/18 41/53/18
f 38/54/21 31/46/21 29/41/21
f 39/55/21 29/41/21 30/40/21
f 40/43/21 30/40/21 32/56/21
f 31/46/21 40/43/21 32/56/21
f 41/53/22 35/45/22 36/57/22
f 42/42/22 33/39/22 35/45/22
f 44/48/22 36/57/22 34/58/22
f 33/39/22 44/48/22 34/58/22
f 34/58/20 32/56/20 30/40/20
f 32/56/23 35/45/23 31/46/23
f 33/39/16 34/58/16 30/40/16
f 42/42/17 41/53/17 40/43/17
f 35/45/18 33/39/18 29/41/18
f 38/47/19 39/59/19 44/48/19
f 38/50/20 43/49/20 42/42/20
f 44/48/18 39/60/18 40/52/18
f 38/54/21 37/44/21 31/46/21
f 39/55/21 38/54/21 29/41/21
f 40/43/21 39/55/21 30/40/21
f 31/46/21 37/44/21 40/43/21
f 41/53/22 42/42/22 35/45/22
f 42/42/22 43/49/22 33/39/22
f 44/48/22 41/53/22 36/57/22
f 33/39/22 43/49/22 44/48/22
f 34/58/20 36/57/20 32/56/20
f 32/56/23 36/57/23 35/45/23
o parede-window-double.002
v 1.787010 0.983208 -3.000000
v 1.787010 2.347071 -3.000000
v -1.887009 0.983208 -3.000000
v -1.887009 2.347071 -3.000000
v 1.787010 0.983208 -2.900000
v 1.787010 2.347071 -2.900000
v -1.887009 0.983208 -2.900000
v -1.887009 2.347071 -2.900000
v -0.753511 0.983208 -3.000000
v 0.653511 0.983208 -3.000000
v 0.653511 2.347071 -3.000000
v -0.753511 2.347071 -3.000000
v 0.653511 0.983208 -2.900000
v -0.753510 0.983208 -2.900000
v -0.753510 2.347071 -2.900000
v 0.653511 2.347071 -2.900000
v 2.950000 0.000000 -3.000000
v 2.950000 2.800000 -3.000000
v -3.050000 2.800000 -3.000000
v -3.050000 0.000000 -3.000000
v -2.950000 2.800000 -2.900000
v -2.950000 0.000000 -2.900000
v 2.850000 2.800000 -2.900000
v 2.850000 0.000000 -2.900000
v -0.050000 0.000000 -3.000000
v -0.050000 2.800000 -3.000000
v -0.050000 0.000000 -2.900000
v -0.050000 2.800000 -2.900000
vn -1.0000 -0.0000 -0.0000
vn -0.7071 -0.0000 0.7071
vn -0.0000 1.0000 -0.0000
vn 0.7071 -0.0000 0.7071
vn -0.0000 -1.0000 -0.0000
vn 1.0000 -0.0000 -0.0000
vn -0.0000 -0.0000 -1.0000
vn -0.0000 -0.0000 1.0000
vt 0.606953 0.575769
vt 0.393047 0.173360
vt 0.393047 0.575769
vt 0.375000 0.500000
vt 0.625000 0.250000
vt 0.375000 0.250000
vt 0.393047 0.526137
vt 0.375000 1.000000
vt 0.625000 0.750000
vt 0.375000 0.750000
vt 0.125000 0.648093
vt 0.375000 0.648094
vt 0.875000 0.648093
vt 0.625000 0.648094
vt 0.625000 0.500000
vt 0.875000 0.601906
vt 0.875000 0.500000
vt 0.125000 0.601906
vt 0.125000 0.500000
vt 0.606953 0.173360
vt 0.606953 0.526137
vt 0.606953 0.224734
vt 0.393047 0.224734
vt 0.393047 0.025266
vt 0.375000 0.101906
vt 0.393047 0.076640
vt 0.625000 0.000000
vt 0.606953 0.025266
vt 0.625000 0.148094
vt 0.375000 0.601906
vt 0.606953 0.723862
vt 0.606953 0.674231
vt 0.393047 0.723862
vt 0.375000 0.148094
vt 0.625000 0.101906
vt 0.606953 0.076640
vt 0.393047 0.674231
vt 0.625000 0.601906
vt 0.625000 1.000000
vt 0.125000 0.750000
vt 0.875000 0.750000
vt 0.375000 0.000000
s 0
f 59/61/24 53/62/24 58/63/24
f 66/64/25 63/65/25 64/66/25
f 53/62/26 51/67/26 58/63/26
f 61/68/27 67/69/27 68/70/27
f 69/71/28 68/70/28 71/72/28
f 67/69/26 70/73/26 72/74/26
f 65/75/26 70/76/26 63/77/26
f 69/78/28 66/64/28 64/79/28
f 56/80/28 52/81/28 48/82/28
f 48/82/29 51/67/29 47/83/29
f 45/84/30 69/85/30 54/86/30
f 62/87/30 45/84/30 46/88/30
f 48/82/30 70/89/30 56/80/30
f 47/83/30 63/65/30 48/82/30
f 65/75/31 51/67/31 52/81/31
f 51/67/31 71/90/31 58/63/31
f 50/91/31 72/74/31 60/92/31
f 49/93/31 67/69/31 50/91/31
f 69/94/30 47/83/30 53/62/30
f 70/95/30 46/88/30 55/96/30
f 71/72/31 49/93/31 57/97/31
f 72/98/31 52/81/31 59/61/31
f 58/63/31 72/98/31 59/61/31
f 72/74/31 57/97/31 60/92/31
f 54/86/30 70/95/30 55/96/30
f 70/89/30 53/62/30 56/80/30
f 57/97/26 45/84/26 54/86/26
f 54/86/29 60/92/29 57/97/29
f 55/96/28 50/91/28 60/92/28
f 49/93/24 46/88/24 45/84/24
f 59/61/24 56/80/24 53/62/24
f 66/64/25 65/75/25 63/65/25
f 53/62/26 47/83/26 51/67/26
f 61/68/27 62/99/27 67/69/27
f 69/71/28 61/100/28 68/70/28
f 67/69/26 62/101/26 70/73/26
f 65/75/26 72/98/26 70/76/26
f 69/78/28 71/90/28 66/64/28
f 56/80/28 59/61/28 52/81/28
f 48/82/29 52/81/29 51/67/29
f 45/84/30 61/102/30 69/85/30
f 62/87/30 61/102/30 45/84/30
f 48/82/30 63/65/30 70/89/30
f 47/83/30 64/66/30 63/65/30
f 65/75/31 66/64/31 51/67/31
f 51/67/31 66/64/31 71/90/31
f 50/91/31 67/69/31 72/74/31
f 49/93/31 68/70/31 67/69/31
f 69/94/30 64/66/30 47/83/30
f 70/95/30 62/87/30 46/88/30
f 71/72/31 68/70/31 49/93/31
f 72/98/31 65/75/31 52/81/31
f 58/63/31 71/90/31 72/98/31
f 72/74/31 71/72/31 57/97/31
f 54/86/30 69/85/30 70/95/30
f 70/89/30 69/94/30 53/62/30
f 57/97/26 49/93/26 45/84/26
f 54/86/29 55/96/29 60/92/29
f 55/96/28 46/88/28 50/91/28
f 49/93/24 50/91/24 46/88/24
o floor_Plane.002
v 100.000000 0.000000 -100.000000
v -100.000000 0.000000 -100.000000
v 100.000000 0.000000 100.000000
v -100.000000 0.000000 100.000000
vn -0.0000 1.0000 -0.0000
vt 1.000000 0.000000
vt 0.000000 1.000000
vt 0.000000 0.000000
vt 1.000000 1.000000
s 0
f 74/103/32 75/104/32 73/105/32
f 74/103/32 76/106/32 75/104/32
o wall-door.001_1.001
v 2.849999 0.000000 3.000000
v 2.849999 2.800000 3.000000
v 2.849999 0.000000 0.500000
v 2.849999 2.800000 0.500000
v 2.950000 0.000000 3.000000
v 2.950000 2.800000 3.000000
v 2.950000 0.000000 0.500000
v 2.950000 2.800000 0.500000
vn -1.0000 -0.0000 -0.0000
vn -0.0000 -0.0000 -1.0000
vn 1.0000 -0.0000 -0.0000
vn -0.0000 -0.0000 1.0000
vn -0.0000 -1.0000 -0.0000
vn -0.0000 1.0000 -0.0000
vt 0.625000 0.000000
vt 0.375000 0.250000
vt 0.375000 0.000000
vt 0.625000 0.250000
vt 0.375000 0.500000
vt 0.625000 0.500000
vt 0.375000 0.750000
vt 0.625000 0.750000
vt 0.375000 1.000000
vt 0.125000 0.750000
vt 0.125000 0.500000
vt 0.875000 0.500000
vt 0.625000 1.000000
vt 0.875000 0.750000
s 0
f 78/107/33 79/108/33 77/109/33
f 80/110/34 83/111/34 79/108/34
f 84/112/35 81/113/35 83/111/35
f 82/114/36 77/115/36 81/113/36
f 83/111/37 77/116/37 79/117/37
f 80/118/38 82/114/38 84/112/38
f 78/107/33 80/110/33 79/108/33
f 80/110/34 84/112/34 83/111/34
f 84/112/35 82/114/35 81/113/35
f 82/114/36 78/119/36 77/115/36
f 83/111/37 81/113/37 77/116/37
f 80/118/38 78/120/38 82/114/38
o wall-door.001_2.001
v 2.850000 0.000000 -0.500000
v 2.850000 2.800000 -0.500000
v 2.850000 0.000000 -3.000000
v 2.850000 2.800000 -3.000000
v 2.950000 0.000000 -0.500000
v 2.950000 2.800000 -0.500000
v 2.950000 0.000000 -3.000000
v 2.950000 2.800000 -3.000000
vn -1.0000 -0.0000 -0.0000
vn -0.0000 -0.0000 -1.0000
vn 1.0000 -0.0000 -0.0000
vn -0.0000 -0.0000 1.0000
vn -0.0000 -1.0000 -0.0000
vn -0.0000 1.0000 -0.0000
vt 0.625000 0.000000
vt 0.375000 0.250000
vt 0.375000 0.000000
vt 0.625000 0.250000
vt 0.375000 0.500000
vt 0.625000 0.500000
vt 0.375000 0.750000
vt 0.625000 0.750000
vt 0.375000 1.000000
vt 0.125000 0.750000
vt 0.125000 0.500000
vt 0.875000 0.500000
vt 0.625000 1.000000
vt 0.875000 0.750000
s 0
f 86/121/39 87/122/39 85/123/39
f 88/124/40 91/125/40 87/122/40
f 92/126/41 89/127/41 91/125/41
f 90/128/42 85/129/42 89/127/42
f 91/125/43 85/130/43 87/131/43
f 88/132/44 90/128/44 92/126/44
f 86/121/39 88/124/39 87/122/39
f 88/124/40 92/126/40 91/125/40
f 92/126/41 90/128/41 89/127/41
f 90/128/42 86/133/42 85/129/42
f 91/125/43 89/127/43 85/130/43
f 88/132/44 86/134/44 90/128/44
o wall-door.001_3.001
v 2.849999 2.000000 0.500000
v 2.849999 2.800000 0.500000
v 2.849999 2.000000 -0.500000
v 2.849999 2.800000 -0.500000
v 2.949999 2.000000 0.500000
v 2.949999 2.800000 0.500000
v 2.949999 2.000000 -0.500000
v 2.949999 2.800000 -0.500000
vn -1.0000 -0.0000 -0.0000
vn -0.0000 -0.0000 -1.0000
vn 1.0000 -0.0000 -0.0000
vn -0.0000 -0.0000 1.0000
vn -0.0000 -1.0000 -0.0000
vn -0.0000 1.0000 -0.0000
vt 0.625000 0.000000
vt 0.375000 0.250000
vt 0.375000 0.000000
vt 0.625000 0.250000
vt 0.375000 0.500000
vt 0.625000 0.500000
vt 0.375000 0.750000
vt 0.625000 0.750000
vt 0.375000 1.000000
vt 0.125000 0.750000
vt 0.125000 0.500000
vt 0.875000 0.500000
vt 0.625000 1.000000
vt 0.875000 0.750000
s 0
f 94/135/45 95/136/45 93/137/45
f 96/138/46 99/139/46 95/136/46
f 100/140/47 97/141/47 99/139/47
f 98/142/48 93/143/48 97/141/48
f 99/139/49 93/144/49 95/145/49
f 96/146/50 98/142/50 100/140/50
f 94/135/45 96/138/45 95/136/45
f 96/138/46 100/140/46 99/139/46
f 100/140/47 98/142/47 97/141/47
f 98/142/48 94/147/48 93/143/48
f 99/139/49 97/141/49 93/144/49
f 96/146/50 94/148/50 98/142/50
o wall-normal.002
v -3.050002 0.000000 3.000000
v -3.050002 2.800000 3.000000
v -3.050002 0.000000 -3.000000
v -3.050002 2.800000 -3.000000
v -2.950002 0.000000 3.000000
v -2.950002 2.800000 3.000000
v -2.950002 0.000000 -3.000000
v -2.950002 2.800000 -3.000000
vn -1.0000 -0.0000 -0.0000
vn -0.0000 -0.0000 -1.0000
vn 1.0000 -0.0000 -0.0000
vn -0.0000 -0.0000 1.0000
vn -0.0000 -1.0000 -0.0000
vn -0.0000 1.0000 -0.0000
vt 0.625000 0.000000
vt 0.375000 0.250000
vt 0.375000 0.000000
vt 0.625000 0.250000
vt 0.375000 0.500000
vt 0.625000 0.500000
vt 0.375000 0.750000
vt 0.625000 0.750000
vt 0.375000 1.000000
vt 0.125000 0.750000
vt 0.125000 0.500000
vt 0.875000 0.500000
vt 0.625000 1.000000
vt 0.875000 0.750000
s 0
f 102/149/51 103/150/51 101/151/51
f 104/152/52 107/153/52 103/150/52
f 108/154/53 105/155/53 107/153/53
f 106/156/54 101/157/54 105/155/54
f 107/153/55 101/158/55 103/159/55
f 104/160/56 106/156/56 108/154/56
f 102/149/51 104/152/51 103/150/51
f 104/152/52 108/154/52 107/153/52
f 108/154/53 106/156/53 105/155/53
f 106/156/54 102/161/54 101/157/54
f 107/153/55 105/155/55 101/158/55
f 104/160/56 102/162/56 106/156/56
o wall-window.001_1.001
v -3.050002 0.000000 2.899998
v -3.050002 2.800000 2.899998
v -0.566749 0.000000 2.900000
v -0.566749 2.800000 2.900000
v -3.050002 0.000000 2.999999
v -3.050002 2.800000 2.999999
v -0.566749 0.000000 3.000000
v -0.566749 2.800000 3.000000
vn -0.0000 -0.0000 -1.0000
vn 1.0000 -0.0000 -0.0000
vn -0.0000 -0.0000 1.0000
vn -1.0000 -0.0000 -0.0000
vn -0.0000 -1.0000 -0.0000
vn -0.0000 1.0000 -0.0000
vt 0.625000 0.000000
vt 0.375000 0.250000
vt 0.375000 0.000000
vt 0.625000 0.250000
vt 0.375000 0.500000
vt 0.625000 0.500000
vt 0.375000 0.750000
vt 0.625000 0.750000
vt 0.375000 1.000000
vt 0.125000 0.750000
vt 0.125000 0.500000
vt 0.875000 0.500000
vt 0.625000 1.000000
vt 0.875000 0.750000
s 0
f 110/163/57 111/164/57 109/165/57
f 112/166/58 115/167/58 111/164/58
f 116/168/59 113/169/59 115/167/59
f 114/170/60 109/171/60 113/169/60
f 115/167/61 109/172/61 111/173/61
f 112/174/62 114/170/62 116/168/62
f 110/163/57 112/166/57 111/164/57
f 112/166/58 116/168/58 115/167/58
f 116/168/59 114/170/59 113/169/59
f 114/170/60 110/175/60 109/171/60
f 115/167/61 113/169/61 109/172/61
f 112/174/62 110/176/62 114/170/62
o wall-window.001_2.001
v 2.949998 0.000000 3.000000
v 2.949998 2.800000 3.000000
v 0.466745 0.000000 2.999998
v 0.466745 2.800000 2.999998
v 2.949998 0.000000 2.899999
v 2.949998 2.800000 2.899999
v 0.466745 0.000000 2.899997
v 0.466745 2.800000 2.899997
vn -0.0000 -0.0000 1.0000
vn -1.0000 -0.0000 -0.0000
vn -0.0000 -0.0000 -1.0000
vn 1.0000 -0.0000 -0.0000
vn -0.0000 -1.0000 -0.0000
vn -0.0000 1.0000 -0.0000
vt 0.625000 0.000000
vt 0.375000 0.250000
vt 0.375000 0.000000
vt 0.625000 0.250000
vt 0.375000 0.500000
vt 0.625000 0.500000
vt 0.375000 0.750000
vt 0.625000 0.750000
vt 0.375000 1.000000
vt 0.125000 0.750000
vt 0.125000 0.500000
vt 0.875000 0.500000
vt 0.625000 1.000000
vt 0.875000 0.750000
s 0
f 118/177/63 119/178/63 117/179/63
f 120/180/64 123/181/64 119/178/64
f 124/182/65 121/183/65 123/181/65
f 122/184/66 117/185/66 121/183/66
f 123/181/67 117/186/67 119/187/67
f 120/188/68 122/184/68 124/182/68
f 118/177/63 120/180/63 119/178/63
f 120/180/64 124/182/64 123/181/64
f 124/182/65 122/184/65 121/183/65
f 122/184/66 118/189/66 117/185/66
f 123/181/67 121/183/67 117/186/67
f 120/188/68 118/190/68 122/184/68
o wall-window.001_3.001
v -0.566749 2.347071 2.899996
v -0.566749 2.800000 2.899996
v 0.466745 2.347071 2.899998
v 0.466745 2.800000 2.899998
v -0.566749 2.347071 2.999997
v -0.566749 2.800000 2.999997
v 0.466745 2.347071 2.999998
v 0.466745 2.800000 2.999998
vn -0.0000 -0.0000 -1.0000
vn 1.0000 -0.0000 -0.0000
vn -0.0000 -0.0000 1.0000
vn -1.0000 -0.0000 -0.0000
vn -0.0000 -1.0000 -0.0000
vn -0.0000 1.0000 -0.0000
vt 0.625000 0.000000
vt 0.375000 0.250000
vt 0.375000 0.000000
vt 0.625000 0.250000
vt 0.375000 0.500000
vt 0.625000 0.500000
vt 0.375000 0.750000
vt 0.625000 0.750000
vt 0.375000 1.000000
vt 0.125000 0.500000
vt 0.125000 0.750000
vt 0.875000 0.500000
vt 0.625000 1.000000
vt 0.875000 0.750000
s 0
f 126/191/69 127/192/69 125/193/69
f 128/194/70 131/195/70 127/192/70
f 132/196/71 129/197/71 131/195/71
f 130/198/72 125/199/72 129/197/72
f 127/200/73 129/197/73 125/201/73
f 128/202/74 130/198/74 132/196/74
f 126/191/69 128/194/69 127/192/69
f 128/194/70 132/196/70 131/195/70
f 132/196/71 130/198/71 129/197/71
f 130/198/72 126/203/72 125/199/72
f 127/200/73 131/195/73 129/197/73
f 128/202/74 126/204/74 130/198/74
o wall-window.001_4.001
v -0.566749 0.000000 2.899996
v -0.566749 0.983208 2.899996
v 0.466745 0.000000 2.899998
v 0.466745 0.983208 2.899998
v -0.566749 0.000000 2.999997
v -0.566749 0.983208 2.999997
v 0.466745 0.000000 2.999998
v 0.466745 0.983208 2.999998
vn -0.0000 -0.0000 -1.0000
vn 1.0000 -0.0000 -0.0000
vn -0.0000 -0.0000 1.0000
vn -1.0000 -0.0000 -0.0000
vn -0.0000 -1.0000 -0.0000
vn -0.0000 1.0000 -0.0000
vt 0.625000 0.000000
vt 0.375000 0.250000
vt 0.375000 0.000000
vt 0.625000 0.250000
vt 0.375000 0.500000
vt 0.625000 0.500000
vt 0.375000 0.750000
vt 0.625000 0.750000
vt 0.375000 1.000000
vt 0.125000 0.500000
vt 0.125000 0.750000
vt 0.875000 0.500000
vt 0.625000 1.000000
vt 0.875000 0.750000
s 0
f 134/205/75 135/206/75 133/207/75
f 136/208/76 139/209/76 135/206/76
f 140/210/77 137/211/77 139/209/77
f 138/212/78 133/213/78 137/211/78
f 135/214/79 137/211/79 133/215/79
f 136/216/80 138/212/80 140/210/80
f 134/205/75 136/208/75 135/206/75
f 136/208/76 140/210/76 139/209/76
f 140/210/77 138/212/77 137/211/77
f 138/212/78 134/217/78 133/213/78
f 135/214/79 139/209/79 137/211/79
f 136/216/80 134/218/80 138/212/80
o wall-window-double.001_1.001
v -3.050000 0.000000 -3.000000
v -3.050000 2.800000 -3.000000
v -1.887009 0.000000 -2.999999
v -1.887009 2.800000 -2.999999
v -3.050000 0.000000 -2.900000
v -3.050000 2.800000 -2.900000
v -1.887009 0.000000 -2.899998
v -1.887009 2.800000 -2.899998
vn -0.0000 -0.0000 -1.0000
vn 1.0000 -0.0000 -0.0000
vn -0.0000 -0.0000 1.0000
vn -1.0000 -0.0000 -0.0000
vn -0.0000 -1.0000 -0.0000
vn -0.0000 1.0000 -0.0000
vt 0.625000 0.000000
vt 0.375000 0.250000
vt 0.375000 0.000000
vt 0.625000 0.250000
vt 0.375000 0.500000
vt 0.625000 0.500000
vt 0.375000 0.750000
vt 0.625000 0.750000
vt 0.375000 1.000000
vt 0.125000 0.500000
vt 0.125000 0.750000
vt 0.875000 0.500000
vt 0.625000 1.000000
vt 0.875000 0.750000
s 0
f 142/219/81 143/220/81 141/221/81
f 144/222/82 147/223/82 143/220/82
f 148/224/83 145/225/83 147/223/83
f 146/226/84 141/227/84 145/225/84
f 143/228/85 145/225/85 141/229/85
f 144/230/86 146/226/86 148/224/86
f 142/219/81 144/222/81 143/220/81
f 144/222/82 148/224/82 147/223/82
f 148/224/83 146/226/83 145/225/83
f 146/226/84 142/231/84 141/227/84
f 143/228/85 147/223/85 145/225/85
f 144/230/86 142/232/86 146/226/86
o wall-window-double.001_2.001
v -0.753510 0.000000 -3.000000
v -0.753510 2.800000 -3.000000
v 0.653511 0.000000 -2.999999
v 0.653511 2.800000 -2.999999
v -0.753510 0.000000 -2.900000
v -0.753510 2.800000 -2.900000
v 0.653511 0.000000 -2.899998
v 0.653511 2.800000 -2.899998
vn -0.0000 -0.0000 -1.0000
vn 1.0000 -0.0000 -0.0000
vn -0.0000 -0.0000 1.0000
vn -1.0000 -0.0000 -0.0000
vn -0.0000 -1.0000 -0.0000
vn -0.0000 1.0000 -0.0000
vt 0.625000 0.000000
vt 0.375000 0.250000
vt 0.375000 0.000000
vt 0.625000 0.250000
vt 0.375000 0.500000
vt 0.625000 0.500000
vt 0.375000 0.750000
vt 0.625000 0.750000
vt 0.375000 1.000000
vt 0.125000 0.500000
vt 0.125000 0.750000
vt 0.875000 0.500000
vt 0.625000 1.000000
vt 0.875000 0.750000
s 0
f 150/233/87 151/234/87 149/235/87
f 152/236/88 155/237/88 151/234/88
f 156/238/89 153/239/89 155/237/89
f 154/240/90 149/241/90 153/239/90
f 151/242/91 153/239/91 149/243/91
f 152/244/92 154/240/92 156/238/92
f 150/233/87 152/236/87 151/234/87
f 152/236/88 156/238/88 155/237/88
f 156/238/89 154/240/89 153/239/89
f 154/240/90 150/245/90 149/241/90
f 151/242/91 155/237/91 153/239/91
f 152/244/92 150/246/92 154/240/92
o wall-window-double.001_3.001
v 1.787010 0.000000 -3.000000
v 1.787010 2.800000 -3.000000
v 2.950000 0.000000 -2.999999
v 2.950000 2.800000 -2.999999
v 1.787010 0.000000 -2.900000
v 1.787010 2.800000 -2.900000
v 2.950000 0.000000 -2.899998
v 2.950000 2.800000 -2.899998
vn -0.0000 -0.0000 -1.0000
vn 1.0000 -0.0000 -0.0000
vn -0.0000 -0.0000 1.0000
vn -1.0000 -0.0000 -0.0000
vn -0.0000 -1.0000 -0.0000
vn -0.0000 1.0000 -0.0000
vt 0.625000 0.000000
vt 0.375000 0.250000
vt 0.375000 0.000000
vt 0.625000 0.250000
vt 0.375000 0.500000
vt 0.625000 0.500000
vt 0.375000 0.750000
vt 0.625000 0.750000
vt 0.375000 1.000000
vt 0.125000 0.500000
vt 0.125000 0.750000
vt 0.875000 0.500000
vt 0.625000 1.000000
vt 0.875000 0.750000
s 0
f 158/247/93 159/248/93 157/249/93
f 160/250/94 163/251/94 159/248/94
f 164/252/95 161/253/95 163/251/95
f 162/254/96 157/255/96 161/253/96
f 159/256/97 161/253/97 157/257/97
f 160/258/98 162/254/98 164/252/98
f 158/247/93 160/250/93 159/248/93
f 160/250/94 164/252/94 163/251/94
f 164/252/95 162/254/95 161/253/95
f 162/254/96 158/259/96 157/255/96
f 159/256/97 163/251/97 161/253/97
f 160/258/98 158/260/98 162/254/98
o wall-window-double.001_4.001
v 0.653511 2.347071 -3.000000
v 0.653511 2.800000 -3.000000
v 1.787010 2.347071 -2.999999
v 1.787010 2.800000 -2.999999
v 0.653511 2.347071 -2.900000
v 0.653511 2.800000 -2.900000
v 1.787010 2.347071 -2.899998
v 1.787010 2.800000 -2.899998
vn -0.0000 -0.0000 -1.0000
vn 1.0000 -0.0000 -0.0000
vn -0.0000 -0.0000 1.0000
vn -1.0000 -0.0000 -0.0000
vn -0.0000 -1.0000 -0.0000
vn -0.0000 1.0000 -0.0000
vt 0.625000 0.000000
vt 0.375000 0.250000
vt 0.375000 0.000000
vt 0.625000 0.250000
vt 0.375000 0.500000
vt 0.625000 0.500000
vt 0.375000 0.750000
vt 0.625000 0.750000
vt 0.375000 1.000000
vt 0.125000 0.500000
vt 0.125000 0.750000
vt 0.875000 0.500000
vt 0.625000 1.000000
vt 0.875000 0.750000
s 0
f 166/261/99 167/262/99 165/263/99
f 168/264/100 171/265/100 167/262/100
f 172/266/101 169/267/101 171/265/101
f 170/268/102 165/269/102 169/267/102
f 167/270/103 169/267/103 165/271/103
f 168/272/104 170/268/104 172/266/104
f 166/261/99 168/264/99 167/262/99
f 168/264/100 172/266/100 171/265/100
f 172/266/101 170/268/101 169/267/101
f 170/268/102 166/273/102 165/269/102
f 167/270/103 171/265/103 169/267/103
f 168/272/104 166/274/104 170/268/104
o wall-window-double.001_5.001
v 0.653511 0.000000 -3.000000
v 0.653511 0.983208 -3.000000
v 1.787010 0.000000 -2.999999
v 1.787010 0.983208 -2.999999
v 0.653511 0.000000 -2.900000
v 0.653511 0.983208 -2.900000
v 1.787010 0.000000 -2.899998
v 1.787010 0.983208 -2.899998
vn -0.0000 -0.0000 -1.0000
vn 1.0000 -0.0000 -0.0000
vn -0.0000 -0.0000 1.0000
vn -1.0000 -0.0000 -0.0000
vn -0.0000 -1.0000 -0.0000
vn -0.0000 1.0000 -0.0000
vt 0.625000 0.000000
vt 0.375000 0.250000
vt 0.375000 0.000000
vt 0.625000 0.250000
vt 0.375000 0.500000
vt 0.625000 0.500000
vt 0.375000 0.750000
vt 0.625000 0.750000
vt 0.375000 1.000000
vt 0.125000 0.500000
vt 0.125000 0.750000
vt 0.875000 0.500000
vt 0.625000 1.000000
vt 0.875000 0.750000
s 0
f 174/275/105 175/276/105 173/277/105
f 176/278/106 179/279/106 175/276/106
f 180/280/107 177/281/107 179/279/107
f 178/282/108 173/283/108 177/281/108
f 175/284/109 177/281/109 173/285/109
f 176/286/110 178/282/110 180/280/110
f 174/275/105 176/278/105 175/276/105
f 176/278/106 180/280/106 179/279/106
f 180/280/107 178/282/107 177/281/107
f 178/282/108 174/287/108 173/283/108
f 175/284/109 179/279/109 177/281/109
f 176/286/110 174/288/110 178/282/110
o wall-window-double.001_6.001
v -1.887009 2.347071 -3.000000
v -1.887009 2.800000 -3.000000
v -0.753510 2.347071 -2.999999
v -0.753510 2.800000 -2.999999
v -1.887009 2.347071 -2.900000
v -1.887009 2.800000 -2.900000
v -0.753510 2.347071 -2.899998
v -0.753510 2.800000 -2.899998
vn -0.0000 -0.0000 -1.0000
vn 1.0000 -0.0000 -0.0000
vn -0.0000 -0.0000 1.0000
vn -1.0000 -0.0000 -0.0000
vn -0.0000 -1.0000 -0.0000
vn -0.0000 1.0000 -0.0000
vt 0.625000 0.000000
vt 0.375000 0.250000
vt 0.375000 0.000000
vt 0.625000 0.250000
vt 0.375000 0.500000
vt 0.625000 0.500000
vt 0.375000 0.750000
vt 0.625000 0.750000
vt 0.375000 1.000000
vt 0.125000 0.500000
vt 0.125000 0.750000
vt 0.875000 0.500000
vt 0.625000 1.000000
vt 0.875000 0.750000
s 0
f 182/289/111 183/290/111 181/291/111
f 184/292/112 187/293/112 183/290/112
f 188/294/113 185/295/113 187/293/113
f 186/296/114 181/297/114 185/295/114
f 183/298/115 185/295/115 181/299/115
f 184/300/116 186/296/116 188/294/116
f 182/289/111 184/292/111 183/290/111
f 184/292/112 188/294/112 187/293/112
f 188/294/113 186/296/113 185/295/113
f 186/296/114 182/301/114 181/297/114
f 183/298/115 187/293/115 185/295/115
f 184/300/116 182/302/116 186/296/116
o wall-window-double.001_7.001
v -1.887009 0.000000 -3.000000
v -1.887009 0.983208 -3.000000
v -0.753510 0.000000 -2.999999
v -0.753510 0.983208 -2.999999
v -1.887009 0.000000 -2.900000
v -1.887009 0.983208 -2.900000
v -0.753510 0.000000 -2.899998
v -0.753510 0.983208 -2.899998
vn -0.0000 -0.0000 -1.0000
vn 1.0000 -0.0000 -0.0000
vn -0.0000 -0.0000 1.0000
vn -1.0000 -0.0000 -0.0000
vn -0.0000 -1.0000 -0.0000
vn -0.0000 1.0000 -0.0000
vt 0.625000 0.000000
vt 0.375000 0.250000
vt 0.375000 0.000000
vt 0.625000 0.250000
vt 0.375000 0.500000
vt 0.625000 0.500000
vt 0.375000 0.750000
vt 0.625000 0.750000
vt 0.375000 1.000000
vt 0.125000 0.500000
vt 0.125000 0.750000
vt 0.875000 0.500000
vt 0.625000 1.000000
vt 0.875000 0.750000
s 0
f 190/303/117 191/304/117 189/305/117
f 192/306/118 195/307/118 191/304/118
f 196/308/119 193/309/119 195/307/119
f 194/310/120 189/311/120 193/309/120
f 191/312/121 193/309/121 189/313/121
f 192/314/122 194/310/122 196/308/122
f 190/303/117 192/306/117 191/304/117
f 192/306/118 196/308/118 195/307/118
f 196/308/119 194/310/119 193/309/119
f 194/310/120 190/315/120 189/311/120
f 191/312/121 195/307/121 193/309/121
f 192/314/122 190/316/122 194/310/122
