# Blender 5.1.1
# www.blender.org
mtllib strange-map.mtl
o Cube
v 4.000000 0.000000 4.000000
v 4.000000 0.000000 -4.000000
v 4.000000 2.000000 -4.000000
v 6.000000 0.000000 4.000000
v 6.000000 0.000000 -4.000000
v 6.000000 2.000000 -4.000000
vn -1.0000 -0.0000 -0.0000
vn -0.0000 -0.0000 -1.0000
vn 1.0000 -0.0000 -0.0000
vn -0.0000 -1.0000 -0.0000
vn -0.0000 0.9701 0.2425
vt 0.625000 0.000000
vt 0.625000 0.250000
vt 0.375000 0.250000
vt 0.375000 0.500000
vt 0.625000 0.500000
vt 0.375000 0.750000
vt 0.125000 0.750000
vt 0.125000 0.500000
vt 0.875000 0.500000
vt 0.625000 0.750000
vt 0.875000 0.750000
s 0
f 1/1/1 3/2/1 2/3/1
f 3/2/2 5/4/2 2/3/2
f 5/4/3 6/5/3 4/6/3
f 5/4/4 1/7/4 2/8/4
f 3/9/5 4/10/5 6/5/5
f 3/2/2 6/5/2 5/4/2
f 5/4/4 4/6/4 1/7/4
f 3/9/5 1/11/5 4/10/5
o Cube.001
v 4.000000 0.000000 -4.000000
v 4.000000 2.000000 -4.000000
v 4.000000 0.000000 -6.000000
v 4.000000 2.000000 -6.000000
v 6.000000 0.000000 -4.000000
v 6.000000 2.000000 -4.000000
v 6.000000 0.000000 -6.000000
v 6.000000 2.000000 -6.000000
vn -1.0000 -0.0000 -0.0000
vn -0.0000 -0.0000 -1.0000
vn 1.0000 -0.0000 -0.0000
vn -0.0000 -0.0000 1.0000
vn -0.0000 -1.0000 -0.0000
vn -0.0000 1.0000 -0.0000
vt 0.625000 0.000000
vt 0.375000 0.250000
vt 0.375000 0.000000
vt 0.625000 0.250000
vt 0.375000 0.500000
vt 0.625000 0.500000
vt 0.375000 0.750000
vt 0.625000 0.750000
vt 0.375000 1.000000
vt 0.125000 0.750000
vt 0.125000 0.500000
vt 0.875000 0.500000
vt 0.625000 1.000000
vt 0.875000 0.750000
s 0
f 8/12/6 9/13/6 7/14/6
f 10/15/7 13/16/7 9/13/7
f 14/17/8 11/18/8 13/16/8
f 12/19/9 7/20/9 11/18/9
f 13/16/10 7/21/10 9/22/10
f 10/23/11 12/19/11 14/17/11
f 8/12/6 10/15/6 9/13/6
f 10/15/7 14/17/7 13/16/7
f 14/17/8 12/19/8 11/18/8
f 12/19/9 8/24/9 7/20/9
f 13/16/10 11/18/10 7/21/10
f 10/23/11 8/25/11 12/19/11
o Cube.002
v 4.000000 2.000000 -4.000000
v -4.000000 2.000000 -4.000000
v -4.000000 4.000000 -4.000000
v 4.000000 2.000000 -6.000000
v -4.000000 2.000000 -6.000000
v -4.000000 4.000000 -6.000000
vn -0.0000 -0.0000 1.0000
vn -1.0000 -0.0000 -0.0000
vn -0.0000 -0.0000 -1.0000
vn -0.0000 -1.0000 -0.0000
vn 0.2425 0.9701 -0.0000
vt 0.625000 0.000000
vt 0.625000 0.250000
vt 0.375000 0.250000
vt 0.375000 0.500000
vt 0.625000 0.500000
vt 0.375000 0.750000
vt 0.125000 0.750000
vt 0.125000 0.500000
vt 0.875000 0.500000
vt 0.625000 0.750000
vt 0.875000 0.750000
s 0
f 15/26/12 17/27/12 16/28/12
f 17/27/13 19/29/13 16/28/13
f 19/29/14 20/30/14 18/31/14
f 19/29/15 15/32/15 16/33/15
f 17/34/16 18/35/16 20/30/16
f 17/27/13 20/30/13 19/29/13
f 19/29/15 18/31/15 15/32/15
f 17/34/16 15/36/16 18/35/16
o Cube.003
v -4.000000 2.000000 -4.000000
v -4.000000 4.000000 -4.000000
v -6.000000 2.000000 -4.000000
v -6.000000 4.000000 -4.000000
v -4.000000 2.000000 -6.000000
v -4.000000 4.000000 -6.000000
v -6.000000 2.000000 -6.000000
v -6.000000 4.000000 -6.000000
vn -0.0000 -0.0000 1.0000
vn -1.0000 -0.0000 -0.0000
vn -0.0000 -0.0000 -1.0000
vn 1.0000 -0.0000 -0.0000
vn -0.0000 -1.0000 -0.0000
vn -0.0000 1.0000 -0.0000
vt 0.625000 0.000000
vt 0.375000 0.250000
vt 0.375000 0.000000
vt 0.625000 0.250000
vt 0.375000 0.500000
vt 0.625000 0.500000
vt 0.375000 0.750000
vt 0.625000 0.750000
vt 0.375000 1.000000
vt 0.125000 0.750000
vt 0.125000 0.500000
vt 0.875000 0.500000
vt 0.625000 1.000000
vt 0.875000 0.750000
s 0
f 22/37/17 23/38/17 21/39/17
f 24/40/18 27/41/18 23/38/18
f 28/42/19 25/43/19 27/41/19
f 26/44/20 21/45/20 25/43/20
f 27/41/21 21/46/21 23/47/21
f 24/48/22 26/44/22 28/42/22
f 22/37/17 24/40/17 23/38/17
f 24/40/18 28/42/18 27/41/18
f 28/42/19 26/44/19 25/43/19
f 26/44/20 22/49/20 21/45/20
f 27/41/21 25/43/21 21/46/21
f 24/48/22 22/50/22 26/44/22
o Cube.004
v -4.000000 4.000000 -4.000000
v -3.999997 4.000000 4.000000
v -3.999997 6.000000 4.000000
v -6.000000 4.000000 -3.999999
v -5.999997 4.000000 4.000001
v -5.999997 6.000000 4.000001
vn 1.0000 -0.0000 -0.0000
vn -0.0000 -0.0000 1.0000
vn -1.0000 -0.0000 -0.0000
vn -0.0000 -1.0000 -0.0000
vn -0.0000 0.9701 -0.2425
vt 0.625000 0.000000
vt 0.625000 0.250000
vt 0.375000 0.250000
vt 0.375000 0.500000
vt 0.625000 0.500000
vt 0.375000 0.750000
vt 0.125000 0.750000
vt 0.125000 0.500000
vt 0.875000 0.500000
vt 0.625000 0.750000
vt 0.875000 0.750000
s 0
f 29/51/23 31/52/23 30/53/23
f 31/52/24 33/54/24 30/53/24
f 33/54/25 34/55/25 32/56/25
f 33/54/26 29/57/26 30/58/26
f 31/59/27 32/60/27 34/55/27
f 31/52/24 34/55/24 33/54/24
f 33/54/26 32/56/26 29/57/26
f 31/59/27 29/61/27 32/60/27
o Cube.005
v -3.999999 4.000000 4.000000
v -3.999999 6.000000 4.000000
v -3.999998 4.000000 6.000000
v -3.999998 6.000000 6.000000
v -5.999999 4.000000 4.000001
v -5.999999 6.000000 4.000001
v -5.999998 4.000000 6.000001
v -5.999998 6.000000 6.000001
vn 1.0000 -0.0000 -0.0000
vn -0.0000 -0.0000 1.0000
vn -1.0000 -0.0000 -0.0000
vn -0.0000 -0.0000 -1.0000
vn -0.0000 -1.0000 -0.0000
vn -0.0000 1.0000 -0.0000
vt 0.625000 0.000000
vt 0.375000 0.250000
vt 0.375000 0.000000
vt 0.625000 0.250000
vt 0.375000 0.500000
vt 0.625000 0.500000
vt 0.375000 0.750000
vt 0.625000 0.750000
vt 0.375000 1.000000
vt 0.125000 0.750000
vt 0.125000 0.500000
vt 0.875000 0.500000
vt 0.625000 1.000000
vt 0.875000 0.750000
s 0
f 36/62/28 37/63/28 35/64/28
f 38/65/29 41/66/29 37/63/29
f 42/67/30 39/68/30 41/66/30
f 40/69/31 35/70/31 39/68/31
f 41/66/32 35/71/32 37/72/32
f 38/73/33 40/69/33 42/67/33
f 36/62/28 38/65/28 37/63/28
f 38/65/29 42/67/29 41/66/29
f 42/67/30 40/69/30 39/68/30
f 40/69/31 36/74/31 35/70/31
f 41/66/32 39/68/32 35/71/32
f 38/73/33 36/75/33 40/69/33
o Cube.006
v -3.999999 6.000000 4.000000
v 4.000001 6.000000 4.000000
v 4.000001 8.000000 4.000000
v -3.999999 6.000000 6.000000
v 4.000001 6.000000 6.000000
v 4.000001 8.000000 6.000000
vn -0.0000 -0.0000 -1.0000
vn 1.0000 -0.0000 -0.0000
vn -0.0000 -0.0000 1.0000
vn -0.0000 -1.0000 -0.0000
vn -0.2425 0.9701 -0.0000
vt 0.625000 0.000000
vt 0.625000 0.250000
vt 0.375000 0.250000
vt 0.375000 0.500000
vt 0.625000 0.500000
vt 0.375000 0.750000
vt 0.125000 0.750000
vt 0.125000 0.500000
vt 0.875000 0.500000
vt 0.625000 0.750000
vt 0.875000 0.750000
s 0
f 43/76/34 45/77/34 44/78/34
f 45/77/35 47/79/35 44/78/35
f 47/79/36 48/80/36 46/81/36
f 47/79/37 43/82/37 44/83/37
f 45/84/38 46/85/38 48/80/38
f 45/77/35 48/80/35 47/79/35
f 47/79/37 46/81/37 43/82/37
f 45/84/38 43/86/38 46/85/38
o Cube.007
v 4.000001 6.000000 4.000000
v 4.000001 8.000000 4.000000
v 6.000001 6.000000 4.000000
v 6.000001 8.000000 4.000000
v 4.000001 6.000000 6.000000
v 4.000001 8.000000 6.000000
v 6.000001 6.000000 6.000000
v 6.000001 8.000000 6.000000
vn -0.0000 -0.0000 -1.0000
vn 1.0000 -0.0000 -0.0000
vn -0.0000 -0.0000 1.0000
vn -1.0000 -0.0000 -0.0000
vn -0.0000 -1.0000 -0.0000
vn -0.0000 1.0000 -0.0000
vt 0.625000 0.000000
vt 0.375000 0.250000
vt 0.375000 0.000000
vt 0.625000 0.250000
vt 0.375000 0.500000
vt 0.625000 0.500000
vt 0.375000 0.750000
vt 0.625000 0.750000
vt 0.375000 1.000000
vt 0.125000 0.750000
vt 0.125000 0.500000
vt 0.875000 0.500000
vt 0.625000 1.000000
vt 0.875000 0.750000
s 0
f 50/87/39 51/88/39 49/89/39
f 52/90/40 55/91/40 51/88/40
f 56/92/41 53/93/41 55/91/41
f 54/94/42 49/95/42 53/93/42
f 55/91/43 49/96/43 51/97/43
f 52/98/44 54/94/44 56/92/44
f 50/87/39 52/90/39 51/88/39
f 52/90/40 56/92/40 55/91/40
f 56/92/41 54/94/41 53/93/41
f 54/94/42 50/99/42 49/95/42
f 55/91/43 53/93/43 49/96/43
f 52/98/44 50/100/44 54/94/44
o Cube.008
v 4.000002 8.000000 4.000000
v 4.000002 8.000000 -4.000000
v 4.000002 10.000000 -4.000000
v 6.000002 8.000000 4.000000
v 6.000002 8.000000 -4.000000
v 6.000002 10.000000 -4.000000
vn -1.0000 -0.0000 -0.0000
vn -0.0000 -0.0000 -1.0000
vn 1.0000 -0.0000 -0.0000
vn -0.0000 -1.0000 -0.0000
vn -0.0000 0.9701 0.2425
vt 0.625000 0.000000
vt 0.625000 0.250000
vt 0.375000 0.250000
vt 0.375000 0.500000
vt 0.625000 0.500000
vt 0.375000 0.750000
vt 0.125000 0.750000
vt 0.125000 0.500000
vt 0.875000 0.500000
vt 0.625000 0.750000
vt 0.875000 0.750000
s 0
f 57/101/45 59/102/45 58/103/45
f 59/102/46 61/104/46 58/103/46
f 61/104/47 62/105/47 60/106/47
f 61/104/48 57/107/48 58/108/48
f 59/109/49 60/110/49 62/105/49
f 59/102/46 62/105/46 61/104/46
f 61/104/48 60/106/48 57/107/48
f 59/109/49 57/111/49 60/110/49
o Cube.009
v 4.000002 8.000000 -4.000000
v 4.000002 10.000000 -4.000000
v 4.000002 8.000000 -6.000000
v 4.000002 10.000000 -6.000000
v 6.000002 8.000000 -4.000000
v 6.000002 10.000000 -4.000000
v 6.000002 8.000000 -6.000000
v 6.000002 10.000000 -6.000000
vn -1.0000 -0.0000 -0.0000
vn -0.0000 -0.0000 -1.0000
vn 1.0000 -0.0000 -0.0000
vn -0.0000 -0.0000 1.0000
vn -0.0000 -1.0000 -0.0000
vn -0.0000 1.0000 -0.0000
vt 0.625000 0.000000
vt 0.375000 0.250000
vt 0.375000 0.000000
vt 0.625000 0.250000
vt 0.375000 0.500000
vt 0.625000 0.500000
vt 0.375000 0.750000
vt 0.625000 0.750000
vt 0.375000 1.000000
vt 0.125000 0.750000
vt 0.125000 0.500000
vt 0.875000 0.500000
vt 0.625000 1.000000
vt 0.875000 0.750000
s 0
f 64/112/50 65/113/50 63/114/50
f 66/115/51 69/116/51 65/113/51
f 70/117/52 67/118/52 69/116/52
f 68/119/53 63/120/53 67/118/53
f 69/116/54 63/121/54 65/122/54
f 66/123/55 68/119/55 70/117/55
f 64/112/50 66/115/50 65/113/50
f 66/115/51 70/117/51 69/116/51
f 70/117/52 68/119/52 67/118/52
f 68/119/53 64/124/53 63/120/53
f 69/116/54 67/118/54 63/121/54
f 66/123/55 64/125/55 68/119/55
o Cube.010
v 4.000002 10.000000 -3.999999
v -3.999999 10.000000 -3.999997
v -3.999999 12.000000 -3.999997
v 4.000001 10.000000 -5.999999
v -3.999999 10.000000 -5.999997
v -3.999999 12.000000 -5.999997
vn -0.0000 -0.0000 1.0000
vn -1.0000 -0.0000 -0.0000
vn -0.0000 -0.0000 -1.0000
vn -0.0000 -1.0000 -0.0000
vn 0.2425 0.9701 -0.0000
vt 0.625000 0.000000
vt 0.625000 0.250000
vt 0.375000 0.250000
vt 0.375000 0.500000
vt 0.625000 0.500000
vt 0.375000 0.750000
vt 0.125000 0.750000
vt 0.125000 0.500000
vt 0.875000 0.500000
vt 0.625000 0.750000
vt 0.875000 0.750000
s 0
f 71/126/56 73/127/56 72/128/56
f 73/127/57 75/129/57 72/128/57
f 75/129/58 76/130/58 74/131/58
f 75/129/59 71/132/59 72/133/59
f 73/134/60 74/135/60 76/130/60
f 73/127/57 76/130/57 75/129/57
f 75/129/59 74/131/59 71/132/59
f 73/134/60 71/136/60 74/135/60
o Cube.011
v -3.999999 10.000000 -4.000000
v -3.999999 12.000000 -4.000000
v -5.999999 10.000000 -3.999999
v -5.999999 12.000000 -3.999999
v -3.999999 10.000000 -6.000000
v -3.999999 12.000000 -6.000000
v -5.999999 10.000000 -5.999999
v -5.999999 12.000000 -5.999999
vn -0.0000 -0.0000 1.0000
vn -1.0000 -0.0000 -0.0000
vn -0.0000 -0.0000 -1.0000
vn 1.0000 -0.0000 -0.0000
vn -0.0000 -1.0000 -0.0000
vn -0.0000 1.0000 -0.0000
vt 0.625000 0.000000
vt 0.375000 0.250000
vt 0.375000 0.000000
vt 0.625000 0.250000
vt 0.375000 0.500000
vt 0.625000 0.500000
vt 0.375000 0.750000
vt 0.625000 0.750000
vt 0.375000 1.000000
vt 0.125000 0.750000
vt 0.125000 0.500000
vt 0.875000 0.500000
vt 0.625000 1.000000
vt 0.875000 0.750000
s 0
f 78/137/61 79/138/61 77/139/61
f 80/140/62 83/141/62 79/138/62
f 84/142/63 81/143/63 83/141/63
f 82/144/64 77/145/64 81/143/64
f 83/141/65 77/146/65 79/147/65
f 80/148/66 82/144/66 84/142/66
f 78/137/61 80/140/61 79/138/61
f 80/140/62 84/142/62 83/141/62
f 84/142/63 82/144/63 81/143/63
f 82/144/64 78/149/64 77/145/64
f 83/141/65 81/143/65 77/146/65
f 80/148/66 78/150/66 82/144/66
o Cube.012
v 4.000000 0.000000 4.000000
v 4.000000 0.000000 -4.000000
v 4.000000 2.000000 -4.000000
v 6.000000 0.000000 4.000000
v 6.000000 0.000000 -4.000000
v 6.000000 2.000000 -4.000000
vn -1.0000 -0.0000 -0.0000
vn -0.0000 -0.0000 -1.0000
vn 1.0000 -0.0000 -0.0000
vn -0.0000 -1.0000 -0.0000
vn -0.0000 0.9701 0.2425
vt 0.625000 0.000000
vt 0.625000 0.250000
vt 0.375000 0.250000
vt 0.375000 0.500000
vt 0.625000 0.500000
vt 0.375000 0.750000
vt 0.125000 0.750000
vt 0.125000 0.500000
vt 0.875000 0.500000
vt 0.625000 0.750000
vt 0.875000 0.750000
s 0
f 85/151/67 87/152/67 86/153/67
f 87/152/68 89/154/68 86/153/68
f 89/154/69 90/155/69 88/156/69
f 89/154/70 85/157/70 86/158/70
f 87/159/71 88/160/71 90/155/71
f 87/152/68 90/155/68 89/154/68
f 89/154/70 88/156/70 85/157/70
f 87/159/71 85/161/71 88/160/71
o Cube.013
v 4.000000 0.000000 -4.000000
v 4.000000 2.000000 -4.000000
v 4.000000 0.000000 -6.000000
v 4.000000 2.000000 -6.000000
v 6.000000 0.000000 -4.000000
v 6.000000 2.000000 -4.000000
v 6.000000 0.000000 -6.000000
v 6.000000 2.000000 -6.000000
vn -1.0000 -0.0000 -0.0000
vn -0.0000 -0.0000 -1.0000
vn 1.0000 -0.0000 -0.0000
vn -0.0000 -0.0000 1.0000
vn -0.0000 -1.0000 -0.0000
vn -0.0000 1.0000 -0.0000
vt 0.625000 0.000000
vt 0.375000 0.250000
vt 0.375000 0.000000
vt 0.625000 0.250000
vt 0.375000 0.500000
vt 0.625000 0.500000
vt 0.375000 0.750000
vt 0.625000 0.750000
vt 0.375000 1.000000
vt 0.125000 0.750000
vt 0.125000 0.500000
vt 0.875000 0.500000
vt 0.625000 1.000000
vt 0.875000 0.750000
s 0
f 92/162/72 93/163/72 91/164/72
f 94/165/73 97/166/73 93/163/73
f 98/167/74 95/168/74 97/166/74
f 96/169/75 91/170/75 95/168/75
f 97/166/76 91/171/76 93/172/76
f 94/173/77 96/169/77 98/167/77
f 92/162/72 94/165/72 93/163/72
f 94/165/73 98/167/73 97/166/73
f 98/167/74 96/169/74 95/168/74
f 96/169/75 92/174/75 91/170/75
f 97/166/76 95/168/76 91/171/76
f 94/173/77 92/175/77 96/169/77
o Cube.014
v 4.000000 2.000000 -4.000000
v -4.000000 2.000000 -4.000000
v -4.000000 4.000000 -4.000000
v 4.000000 2.000000 -6.000000
v -4.000000 2.000000 -6.000000
v -4.000000 4.000000 -6.000000
vn -0.0000 -0.0000 1.0000
vn -1.0000 -0.0000 -0.0000
vn -0.0000 -0.0000 -1.0000
vn -0.0000 -1.0000 -0.0000
vn 0.2425 0.9701 -0.0000
vt 0.625000 0.000000
vt 0.625000 0.250000
vt 0.375000 0.250000
vt 0.375000 0.500000
vt 0.625000 0.500000
vt 0.375000 0.750000
vt 0.125000 0.750000
vt 0.125000 0.500000
vt 0.875000 0.500000
vt 0.625000 0.750000
vt 0.875000 0.750000
s 0
f 99/176/78 101/177/78 100/178/78
f 101/177/79 103/179/79 100/178/79
f 103/179/80 104/180/80 102/181/80
f 103/179/81 99/182/81 100/183/81
f 101/184/82 102/185/82 104/180/82
f 101/177/79 104/180/79 103/179/79
f 103/179/81 102/181/81 99/182/81
f 101/184/82 99/186/82 102/185/82
o Cube.015
v -4.000000 2.000000 -4.000000
v -4.000000 4.000000 -4.000000
v -6.000000 2.000000 -4.000000
v -6.000000 4.000000 -4.000000
v -4.000000 2.000000 -6.000000
v -4.000000 4.000000 -6.000000
v -6.000000 2.000000 -6.000000
v -6.000000 4.000000 -6.000000
vn -0.0000 -0.0000 1.0000
vn -1.0000 -0.0000 -0.0000
vn -0.0000 -0.0000 -1.0000
vn 1.0000 -0.0000 -0.0000
vn -0.0000 -1.0000 -0.0000
vn -0.0000 1.0000 -0.0000
vt 0.625000 0.000000
vt 0.375000 0.250000
vt 0.375000 0.000000
vt 0.625000 0.250000
vt 0.375000 0.500000
vt 0.625000 0.500000
vt 0.375000 0.750000
vt 0.625000 0.750000
vt 0.375000 1.000000
vt 0.125000 0.750000
vt 0.125000 0.500000
vt 0.875000 0.500000
vt 0.625000 1.000000
vt 0.875000 0.750000
s 0
f 106/187/83 107/188/83 105/189/83
f 108/190/84 111/191/84 107/188/84
f 112/192/85 109/193/85 111/191/85
f 110/194/86 105/195/86 109/193/86
f 111/191/87 105/196/87 107/197/87
f 108/198/88 110/194/88 112/192/88
f 106/187/83 108/190/83 107/188/83
f 108/190/84 112/192/84 111/191/84
f 112/192/85 110/194/85 109/193/85
f 110/194/86 106/199/86 105/195/86
f 111/191/87 109/193/87 105/196/87
f 108/198/88 106/200/88 110/194/88
o Cube.016
v -4.000000 4.000000 -4.000000
v -3.999997 4.000000 4.000000
v -3.999997 6.000000 4.000000
v -6.000000 4.000000 -3.999999
v -5.999997 4.000000 4.000001
v -5.999997 6.000000 4.000001
vn 1.0000 -0.0000 -0.0000
vn -0.0000 -0.0000 1.0000
vn -1.0000 -0.0000 -0.0000
vn -0.0000 -1.0000 -0.0000
vn -0.0000 0.9701 -0.2425
vt 0.625000 0.000000
vt 0.625000 0.250000
vt 0.375000 0.250000
vt 0.375000 0.500000
vt 0.625000 0.500000
vt 0.375000 0.750000
vt 0.125000 0.750000
vt 0.125000 0.500000
vt 0.875000 0.500000
vt 0.625000 0.750000
vt 0.875000 0.750000
s 0
f 113/201/89 115/202/89 114/203/89
f 115/202/90 117/204/90 114/203/90
f 117/204/91 118/205/91 116/206/91
f 117/204/92 113/207/92 114/208/92
f 115/209/93 116/210/93 118/205/93
f 115/202/90 118/205/90 117/204/90
f 117/204/92 116/206/92 113/207/92
f 115/209/93 113/211/93 116/210/93
o Cube.017
v -3.999999 4.000000 4.000000
v -3.999999 6.000000 4.000000
v -3.999998 4.000000 6.000000
v -3.999998 6.000000 6.000000
v -5.999999 4.000000 4.000001
v -5.999999 6.000000 4.000001
v -5.999998 4.000000 6.000001
v -5.999998 6.000000 6.000001
vn 1.0000 -0.0000 -0.0000
vn -0.0000 -0.0000 1.0000
vn -1.0000 -0.0000 -0.0000
vn -0.0000 -0.0000 -1.0000
vn -0.0000 -1.0000 -0.0000
vn -0.0000 1.0000 -0.0000
vt 0.625000 0.000000
vt 0.375000 0.250000
vt 0.375000 0.000000
vt 0.625000 0.250000
vt 0.375000 0.500000
vt 0.625000 0.500000
vt 0.375000 0.750000
vt 0.625000 0.750000
vt 0.375000 1.000000
vt 0.125000 0.750000
vt 0.125000 0.500000
vt 0.875000 0.500000
vt 0.625000 1.000000
vt 0.875000 0.750000
s 0
f 120/212/94 121/213/94 119/214/94
f 122/215/95 125/216/95 121/213/95
f 126/217/96 123/218/96 125/216/96
f 124/219/97 119/220/97 123/218/97
f 125/216/98 119/221/98 121/222/98
f 122/223/99 124/219/99 126/217/99
f 120/212/94 122/215/94 121/213/94
f 122/215/95 126/217/95 125/216/95
f 126/217/96 124/219/96 123/218/96
f 124/219/97 120/224/97 119/220/97
f 125/216/98 123/218/98 119/221/98
f 122/223/99 120/225/99 124/219/99
o Cube.018
v -3.999999 6.000000 4.000000
v 4.000001 6.000000 4.000000
v 4.000001 8.000000 4.000000
v -3.999999 6.000000 6.000000
v 4.000001 6.000000 6.000000
v 4.000001 8.000000 6.000000
vn -0.0000 -0.0000 -1.0000
vn 1.0000 -0.0000 -0.0000
vn -0.0000 -0.0000 1.0000
vn -0.0000 -1.0000 -0.0000
vn -0.2425 0.9701 -0.0000
vt 0.625000 0.000000
vt 0.625000 0.250000
vt 0.375000 0.250000
vt 0.375000 0.500000
vt 0.625000 0.500000
vt 0.375000 0.750000
vt 0.125000 0.750000
vt 0.125000 0.500000
vt 0.875000 0.500000
vt 0.625000 0.750000
vt 0.875000 0.750000
s 0
f 127/226/100 129/227/100 128/228/100
f 129/227/101 131/229/101 128/228/101
f 131/229/102 132/230/102 130/231/102
f 131/229/103 127/232/103 128/233/103
f 129/234/104 130/235/104 132/230/104
f 129/227/101 132/230/101 131/229/101
f 131/229/103 130/231/103 127/232/103
f 129/234/104 127/236/104 130/235/104
o Cube.019
v 4.000001 6.000000 4.000000
v 4.000001 8.000000 4.000000
v 6.000001 6.000000 4.000000
v 6.000001 8.000000 4.000000
v 4.000001 6.000000 6.000000
v 4.000001 8.000000 6.000000
v 6.000001 6.000000 6.000000
v 6.000001 8.000000 6.000000
vn -0.0000 -0.0000 -1.0000
vn 1.0000 -0.0000 -0.0000
vn -0.0000 -0.0000 1.0000
vn -1.0000 -0.0000 -0.0000
vn -0.0000 -1.0000 -0.0000
vn -0.0000 1.0000 -0.0000
vt 0.625000 0.000000
vt 0.375000 0.250000
vt 0.375000 0.000000
vt 0.625000 0.250000
vt 0.375000 0.500000
vt 0.625000 0.500000
vt 0.375000 0.750000
vt 0.625000 0.750000
vt 0.375000 1.000000
vt 0.125000 0.750000
vt 0.125000 0.500000
vt 0.875000 0.500000
vt 0.625000 1.000000
vt 0.875000 0.750000
s 0
f 134/237/105 135/238/105 133/239/105
f 136/240/106 139/241/106 135/238/106
f 140/242/107 137/243/107 139/241/107
f 138/244/108 133/245/108 137/243/108
f 139/241/109 133/246/109 135/247/109
f 136/248/110 138/244/110 140/242/110
f 134/237/105 136/240/105 135/238/105
f 136/240/106 140/242/106 139/241/106
f 140/242/107 138/244/107 137/243/107
f 138/244/108 134/249/108 133/245/108
f 139/241/109 137/243/109 133/246/109
f 136/248/110 134/250/110 138/244/110
o Cube.020
v 4.000002 8.000000 4.000000
v 4.000002 8.000000 -4.000000
v 4.000002 10.000000 -4.000000
v 6.000002 8.000000 4.000000
v 6.000002 8.000000 -4.000000
v 6.000002 10.000000 -4.000000
vn -1.0000 -0.0000 -0.0000
vn -0.0000 -0.0000 -1.0000
vn 1.0000 -0.0000 -0.0000
vn -0.0000 -1.0000 -0.0000
vn -0.0000 0.9701 0.2425
vt 0.625000 0.000000
vt 0.625000 0.250000
vt 0.375000 0.250000
vt 0.375000 0.500000
vt 0.625000 0.500000
vt 0.375000 0.750000
vt 0.125000 0.750000
vt 0.125000 0.500000
vt 0.875000 0.500000
vt 0.625000 0.750000
vt 0.875000 0.750000
s 0
f 141/251/111 143/252/111 142/253/111
f 143/252/112 145/254/112 142/253/112
f 145/254/113 146/255/113 144/256/113
f 145/254/114 141/257/114 142/258/114
f 143/259/115 144/260/115 146/255/115
f 143/252/112 146/255/112 145/254/112
f 145/254/114 144/256/114 141/257/114
f 143/259/115 141/261/115 144/260/115
o Cube.021
v 4.000002 8.000000 -4.000000
v 4.000002 10.000000 -4.000000
v 4.000002 8.000000 -6.000000
v 4.000002 10.000000 -6.000000
v 6.000002 8.000000 -4.000000
v 6.000002 10.000000 -4.000000
v 6.000002 8.000000 -6.000000
v 6.000002 10.000000 -6.000000
vn -1.0000 -0.0000 -0.0000
vn -0.0000 -0.0000 -1.0000
vn 1.0000 -0.0000 -0.0000
vn -0.0000 -0.0000 1.0000
vn -0.0000 -1.0000 -0.0000
vn -0.0000 1.0000 -0.0000
vt 0.625000 0.000000
vt 0.375000 0.250000
vt 0.375000 0.000000
vt 0.625000 0.250000
vt 0.375000 0.500000
vt 0.625000 0.500000
vt 0.375000 0.750000
vt 0.625000 0.750000
vt 0.375000 1.000000
vt 0.125000 0.750000
vt 0.125000 0.500000
vt 0.875000 0.500000
vt 0.625000 1.000000
vt 0.875000 0.750000
s 0
f 148/262/116 149/263/116 147/264/116
f 150/265/117 153/266/117 149/263/117
f 154/267/118 151/268/118 153/266/118
f 152/269/119 147/270/119 151/268/119
f 153/266/120 147/271/120 149/272/120
f 150/273/121 152/269/121 154/267/121
f 148/262/116 150/265/116 149/263/116
f 150/265/117 154/267/117 153/266/117
f 154/267/118 152/269/118 151/268/118
f 152/269/119 148/274/119 147/270/119
f 153/266/120 151/268/120 147/271/120
f 150/273/121 148/275/121 152/269/121
o Cube.022
v 4.000002 10.000000 -3.999999
v -3.999999 10.000000 -3.999997
v -3.999999 12.000000 -3.999997
v 4.000001 10.000000 -5.999999
v -3.999999 10.000000 -5.999997
v -3.999999 12.000000 -5.999997
vn -0.0000 -0.0000 1.0000
vn -1.0000 -0.0000 -0.0000
vn -0.0000 -0.0000 -1.0000
vn -0.0000 -1.0000 -0.0000
vn 0.2425 0.9701 -0.0000
vt 0.625000 0.000000
vt 0.625000 0.250000
vt 0.375000 0.250000
vt 0.375000 0.500000
vt 0.625000 0.500000
vt 0.375000 0.750000
vt 0.125000 0.750000
vt 0.125000 0.500000
vt 0.875000 0.500000
vt 0.625000 0.750000
vt 0.875000 0.750000
s 0
f 155/276/122 157/277/122 156/278/122
f 157/277/123 159/279/123 156/278/123
f 159/279/124 160/280/124 158/281/124
f 159/279/125 155/282/125 156/283/125
f 157/284/126 158/285/126 160/280/126
f 157/277/123 160/280/123 159/279/123
f 159/279/125 158/281/125 155/282/125
f 157/284/126 155/286/126 158/285/126
o Cube.023
v -3.999999 10.000000 -4.000000
v -3.999999 12.000000 -4.000000
v -5.999999 10.000000 -3.999999
v -5.999999 12.000000 -3.999999
v -3.999999 10.000000 -6.000000
v -3.999999 12.000000 -6.000000
v -5.999999 10.000000 -5.999999
v -5.999999 12.000000 -5.999999
vn -0.0000 -0.0000 1.0000
vn -1.0000 -0.0000 -0.0000
vn -0.0000 -0.0000 -1.0000
vn 1.0000 -0.0000 -0.0000
vn -0.0000 -1.0000 -0.0000
vn -0.0000 1.0000 -0.0000
vt 0.625000 0.000000
vt 0.375000 0.250000
vt 0.375000 0.000000
vt 0.625000 0.250000
vt 0.375000 0.500000
vt 0.625000 0.500000
vt 0.375000 0.750000
vt 0.625000 0.750000
vt 0.375000 1.000000
vt 0.125000 0.750000
vt 0.125000 0.500000
vt 0.875000 0.500000
vt 0.625000 1.000000
vt 0.875000 0.750000
s 0
f 162/287/127 163/288/127 161/289/127
f 164/290/128 167/291/128 163/288/128
f 168/292/129 165/293/129 167/291/129
f 166/294/130 161/295/130 165/293/130
f 167/291/131 161/296/131 163/297/131
f 164/298/132 166/294/132 168/292/132
f 162/287/127 164/290/127 163/288/127
f 164/290/128 168/292/128 167/291/128
f 168/292/129 166/294/129 165/293/129
f 166/294/130 162/299/130 161/295/130
f 167/291/131 165/293/131 161/296/131
f 164/298/132 162/300/132 166/294/132
o Plane
v -10.000000 0.000000 10.000000
v 10.000000 0.000000 10.000000
v -10.000000 0.000000 -10.000000
v 10.000000 0.000000 -10.000000
vn -0.0000 1.0000 -0.0000
vt 1.000000 0.000000
vt 0.000000 1.000000
vt 0.000000 0.000000
vt 1.000000 1.000000
s 0
f 170/301/133 171/302/133 169/303/133
f 170/301/133 172/304/133 171/302/133
