# Blender 5.1.1
# www.blender.org
mtllib mini-map.mtl
o Plane
v -100.000000 0.000000 100.000000
v 100.000000 0.000000 100.000000
v -100.000000 0.000000 -100.000000
v 100.000000 0.000000 -100.000000
v -3.898525 -0.000002 -1.197455
v -3.898525 1.999998 -1.197455
v -3.898525 -0.000002 -3.197455
v -3.898525 1.999998 -3.197455
v -1.898525 -0.000002 -1.197455
v -1.898525 1.999998 -1.197455
v -1.898525 -0.000002 -3.197455
v -1.898525 1.999998 -3.197455
v -2.880066 -0.000002 4.188087
v -2.880066 1.999998 4.188087
v -2.880066 -0.000002 2.188087
v -2.880066 1.999998 2.188087
v -0.880066 -0.000002 4.188087
v -0.880066 1.999998 4.188087
v -0.880066 -0.000002 2.188087
v -0.880066 1.999998 2.188087
v 1.086752 -0.000002 -2.517041
v 1.086752 1.999998 -2.517041
v 1.086752 -0.000002 -4.517041
v 1.086752 1.999998 -4.517041
v 3.086752 -0.000002 -2.517041
v 3.086752 1.999998 -2.517041
v 3.086752 -0.000002 -4.517041
v 3.086752 1.999998 -4.517041
v 2.877189 -0.000002 2.189223
v 2.877189 1.999998 2.189223
v 2.877189 -0.000002 0.189223
v 2.877189 1.999998 0.189223
v 4.877190 -0.000002 2.189223
v 4.877190 1.999998 2.189223
v 4.877190 -0.000002 0.189223
v 4.877190 1.999998 0.189223
v -0.418097 -0.000002 4.972356
v -0.418097 1.999998 4.972356
v -0.418097 -0.000002 2.972356
v -0.418097 1.999998 2.972356
v 1.581903 -0.000002 4.972356
v 1.581903 1.999998 4.972356
v 1.581903 -0.000002 2.972356
v 1.581903 1.999998 2.972356
v -2.079371 1.999998 3.516625
v -2.079371 2.414171 3.516625
v -3.814884 1.999998 -2.294399
v -3.814884 2.414171 -2.294399
v -0.163012 1.999998 2.944288
v -0.163012 2.414171 2.944288
v -1.898525 1.999998 -2.866737
v -1.898525 2.414171 -2.866737
v -2.837265 2.414171 2.812867
v -2.837265 4.414171 2.812867
v -2.837265 2.414171 0.812867
v -2.837265 4.414171 0.812867
v -0.837265 2.414171 2.812867
v -0.837265 4.414171 2.812867
v -0.837265 2.414171 0.812867
v -0.837265 4.414171 0.812867
vn -0.0000 1.0000 -0.0000
vn -1.0000 -0.0000 -0.0000
vn -0.0000 -0.0000 -1.0000
vn 1.0000 -0.0000 -0.0000
vn -0.0000 -0.0000 1.0000
vn -0.0000 -1.0000 -0.0000
vn -0.9582 -0.0000 0.2862
vn -0.2862 -0.0000 -0.9582
vn 0.9582 -0.0000 -0.2862
vn 0.2862 -0.0000 0.9582
vt 1.000000 0.000000
vt 0.000000 1.000000
vt 0.000000 0.000000
vt 0.625000 0.000000
vt 0.375000 0.250000
vt 0.375000 0.000000
vt 0.625000 0.250000
vt 0.375000 0.500000
vt 0.625000 0.500000
vt 0.375000 0.750000
vt 0.625000 0.750000
vt 0.375000 1.000000
vt 0.125000 0.750000
vt 0.125000 0.500000
vt 0.875000 0.500000
vt 0.875000 0.750000
vt 1.000000 1.000000
vt 0.625000 1.000000
s 0
f 2/1/1 3/2/1 1/3/1
f 6/4/2 7/5/2 5/6/2
f 8/7/3 11/8/3 7/5/3
f 12/9/4 9/10/4 11/8/4
f 10/11/5 5/12/5 9/10/5
f 11/8/6 5/13/6 7/14/6
f 8/15/1 10/11/1 12/9/1
f 14/4/2 15/5/2 13/6/2
f 16/7/3 19/8/3 15/5/3
f 20/9/4 17/10/4 19/8/4
f 18/11/5 13/12/5 17/10/5
f 19/8/6 13/13/6 15/14/6
f 16/15/1 18/11/1 20/9/1
f 22/4/2 23/5/2 21/6/2
f 24/7/3 27/8/3 23/5/3
f 28/9/4 25/10/4 27/8/4
f 26/11/5 21/12/5 25/10/5
f 27/8/6 21/13/6 23/14/6
f 24/15/1 26/11/1 28/9/1
f 30/4/2 31/5/2 29/6/2
f 32/7/3 35/8/3 31/5/3
f 36/9/4 33/10/4 35/8/4
f 34/11/5 29/12/5 33/10/5
f 35/8/6 29/13/6 31/14/6
f 32/15/1 34/11/1 36/9/1
f 38/4/2 39/5/2 37/6/2
f 40/7/3 43/8/3 39/5/3
f 44/9/4 41/10/4 43/8/4
f 42/11/5 37/12/5 41/10/5
f 43/8/6 37/13/6 39/14/6
f 40/15/1 42/11/1 44/9/1
f 46/4/7 47/5/7 45/6/7
f 48/7/8 51/8/8 47/5/8
f 52/9/9 49/10/9 51/8/9
f 50/11/10 45/12/10 49/10/10
f 51/8/6 45/13/6 47/14/6
f 52/9/1 46/16/1 50/11/1
f 54/4/2 55/5/2 53/6/2
f 56/7/3 59/8/3 55/5/3
f 60/9/4 57/10/4 59/8/4
f 58/11/5 53/12/5 57/10/5
f 59/8/6 53/13/6 55/14/6
f 56/15/1 58/11/1 60/9/1
f 2/1/1 4/17/1 3/2/1
f 6/4/2 8/7/2 7/5/2
f 8/7/3 12/9/3 11/8/3
f 12/9/4 10/11/4 9/10/4
f 10/11/5 6/18/5 5/12/5
f 11/8/6 9/10/6 5/13/6
f 8/15/1 6/16/1 10/11/1
f 14/4/2 16/7/2 15/5/2
f 16/7/3 20/9/3 19/8/3
f 20/9/4 18/11/4 17/10/4
f 18/11/5 14/18/5 13/12/5
f 19/8/6 17/10/6 13/13/6
f 16/15/1 14/16/1 18/11/1
f 22/4/2 24/7/2 23/5/2
f 24/7/3 28/9/3 27/8/3
f 28/9/4 26/11/4 25/10/4
f 26/11/5 22/18/5 21/12/5
f 27/8/6 25/10/6 21/13/6
f 24/15/1 22/16/1 26/11/1
f 30/4/2 32/7/2 31/5/2
f 32/7/3 36/9/3 35/8/3
f 36/9/4 34/11/4 33/10/4
f 34/11/5 30/18/5 29/12/5
f 35/8/6 33/10/6 29/13/6
f 32/15/1 30/16/1 34/11/1
f 38/4/2 40/7/2 39/5/2
f 40/7/3 44/9/3 43/8/3
f 44/9/4 42/11/4 41/10/4
f 42/11/5 38/18/5 37/12/5
f 43/8/6 41/10/6 37/13/6
f 40/15/1 38/16/1 42/11/1
f 46/4/7 48/7/7 47/5/7
f 48/7/8 52/9/8 51/8/8
f 52/9/9 50/11/9 49/10/9
f 50/11/10 46/18/10 45/12/10
f 51/8/6 49/10/6 45/13/6
f 52/9/1 48/15/1 46/16/1
f 54/4/2 56/7/2 55/5/2
f 56/7/3 60/9/3 59/8/3
f 60/9/4 58/11/4 57/10/4
f 58/11/5 54/18/5 53/12/5
f 59/8/6 57/10/6 53/13/6
f 56/15/1 54/16/1 58/11/1
